<svg width="422" height="510" viewBox="0 0 422 510" fill="none" xmlns="http://www.w3.org/2000/svg">
<path d="M304.668 480.701H297.947C342.751 521.461 393.529 510.975 413.317 500.638C410.629 467.852 390.542 445.626 380.835 438.612C407.717 484.688 349.472 491.038 316.989 488.454L304.668 480.701Z" fill="#ECE8DF"/>
<path d="M199.378 240.351L166.895 262.503V273.579C164.207 273.579 162.041 278.747 161.295 281.332C171.152 282.218 165.402 292.777 161.295 297.946C161.668 313.452 162.191 346.902 161.295 356.649C160.399 366.396 148.974 374.74 143.373 377.693L154.574 381.016L166.895 367.725C171.376 363.294 200.872 361.448 215.06 361.079C225.812 353.104 232.981 340.035 235.221 334.497L254.263 333.389C259.64 322.756 266.211 320.098 268.824 320.098L281.146 323.421C292.795 319.876 297.2 321.944 297.947 323.421L300.187 333.389C298.395 320.098 334.537 311.606 352.832 309.022C411.973 289.528 409.584 313.452 400.996 327.851L399.876 350.003L392.036 358.864L395.396 364.402L403.237 355.541L405.477 333.389L418.918 305.699C427.879 281.775 415.184 222.629 407.717 196.046C379.042 93.2605 325.576 97.8386 302.427 112.976L320.349 131.805C334.686 97.2475 354.699 119.621 362.913 135.128L368.513 200.477C374.786 162.375 383.075 178.694 386.435 191.616C390.915 188.958 394.276 196.416 395.396 200.477L392.036 202.692C393.156 208.599 394.948 224.401 393.156 240.351C391.363 256.3 341.631 266.195 316.989 269.148C301.755 292.186 289.733 281.701 285.626 273.579C233.653 278.009 206.472 253.273 199.378 240.351Z" fill="#ECE8DF"/>
<path d="M146.733 382.124L136.652 381.016L106.41 406.491L92.9684 408.706L71.6865 423.105L56.0051 424.213L47.0443 429.751L49.2845 434.181L63.8458 427.536H78.4071L90.7282 415.352L109.77 413.137C109.77 406.934 134.412 389.877 146.733 382.124Z" fill="#ECE8DF"/>
<path d="M192.657 406.491C180.112 402.947 176.229 399.845 175.856 398.738C158.83 403.168 144.866 416.829 140.013 423.105C137.324 434.624 121.718 453.01 114.25 460.764C111.562 464.308 101.929 462.241 97.4488 460.764C90.2802 458.992 89.9815 462.979 90.7282 465.194L114.25 485.131C119.627 469.182 135.906 463.717 143.373 462.979L231.861 458.549V427.536C225.588 427.536 222.527 438.612 221.78 444.15C217.3 450.352 212.446 441.565 210.579 436.396C206.099 439.719 194.898 425.32 193.778 425.32C192.881 425.32 192.657 412.767 192.657 406.491Z" fill="#ECE8DF"/>
<path d="M67.2061 0H58.2453C64.5178 2.65825 63.8458 11.4453 62.7257 15.5065L51.5247 28.7977L57.1252 37.6586C59.8134 42.089 56.0051 63.1335 53.7649 73.1019L0 103.007L11.201 161.71C36.2913 182.09 38.8302 207.122 36.9634 217.091L16.8015 235.92C23.9702 237.692 23.5221 246.996 22.402 251.426C58.2453 239.021 64.9659 252.165 63.8458 260.287C68.3262 259.401 73.18 262.133 75.0468 263.61L88.488 326.743H98.5689V321.205C94.0885 309.686 107.156 312.714 114.25 315.667C108.874 293.515 121.718 291.669 128.812 293.515C118.955 264.275 141.133 273.209 153.454 281.332L163.535 271.363V264.718L160.175 263.61C160.175 261.764 160.623 258.294 162.415 259.18C164.207 260.066 184.817 245.519 194.898 238.135C193.778 236.658 192.881 230.382 198.258 217.091C203.634 203.799 190.044 181.278 182.577 171.679C164.655 186.078 134.412 149.527 131.052 142.881C128.364 137.565 139.639 136.974 145.613 137.343C142.029 129.368 150.84 122.944 155.694 120.729C151.214 118.071 152.334 107.807 153.454 103.007C124.779 70.2222 124.331 53.9035 127.692 49.8422L107.53 27.6901C105.29 38.7662 97.8969 58.7031 86.2478 49.8422C74.5988 40.9814 78.4071 24.7365 81.7674 17.7217C70.1184 14.1773 67.2061 4.43042 67.2061 0Z" fill="#EAAD93"/>
</svg>
