<svg width="100" height="74" viewBox="0 0 100 74" fill="none" xmlns="http://www.w3.org/2000/svg">
<path d="M21.3066 0.649014C20.8925 0.69428 20.4989 0.852208 20.1688 1.10553C19.8386 1.35885 19.5845 1.69779 19.4342 2.08542C19.284 2.47306 19.2433 2.89445 19.3168 3.30356C19.3902 3.71267 19.5749 4.09382 19.8506 4.40531L28.693 15.0009C13.8781 20.9044 4.52117 31.5028 0.674289 35.3416C0.460665 35.5525 0.291075 35.8036 0.175335 36.0804C0.0595943 36.3571 0 36.6541 0 36.9539C0 37.2538 0.0595943 37.5508 0.175335 37.8275C0.291075 38.1043 0.460665 38.3553 0.674289 38.5662C6.12088 44.0014 22.5956 63.0532 50 63.0532C56.1389 63.0532 61.7206 62.1174 66.7615 60.5726L76.6693 72.4438C76.8535 72.6926 77.0869 72.9011 77.3549 73.0565C77.6229 73.212 77.92 73.3111 78.2278 73.3477C78.5356 73.3844 78.8477 73.3579 79.1449 73.2698C79.442 73.1816 79.718 73.0337 79.9557 72.8352C80.1935 72.6366 80.388 72.3917 80.5274 72.1154C80.6668 71.839 80.748 71.5371 80.7662 71.2283C80.7843 70.9194 80.739 70.6102 80.6329 70.3195C80.5268 70.0288 80.3623 69.7629 80.1494 69.538L71.307 58.9424C86.119 53.0281 95.4793 42.4047 99.3257 38.5662C99.5393 38.3553 99.7089 38.1043 99.8247 37.8275C99.9404 37.5508 100 37.2538 100 36.9539C100 36.6541 99.9404 36.3571 99.8247 36.0804C99.7089 35.8036 99.5393 35.5525 99.3257 35.3416C93.8791 29.9064 77.4044 10.8902 50 10.8902C43.8742 10.8902 38.3064 11.8699 33.274 13.4062L23.3307 1.49948C23.0928 1.19862 22.7824 0.962812 22.4284 0.814086C22.0745 0.66536 21.6885 0.608579 21.3066 0.649014ZM50 15.4261C73.668 15.4261 87.9025 30.185 94.5316 36.9717C89.8272 41.7879 81.2805 50.6039 68.2885 55.3279L62.5356 48.4532C65.3298 45.4183 67.0456 41.3943 67.0456 36.9717C67.0456 27.6043 59.3871 19.962 50 19.962C46.6754 19.962 43.5748 20.9273 40.9445 22.5844L36.399 17.1625C40.5342 16.083 45.0593 15.4261 50 15.4261ZM31.7115 18.6154L37.4644 25.4901C34.6702 28.525 32.9544 32.5491 32.9544 36.9717C32.9544 46.339 40.6129 53.9812 50 53.9812C53.3246 53.9812 56.4252 53.0161 59.0555 51.359L63.601 56.7807C59.4666 57.8602 54.938 58.5172 50 58.5172C26.3503 58.5172 12.1046 43.7658 5.46837 36.9717C10.1703 32.158 18.7048 23.3393 31.7115 18.6154ZM50 24.4979C56.9305 24.4979 62.5001 30.0557 62.5001 36.9717C62.5001 40.0153 61.4187 42.789 59.6237 44.9449L43.892 26.0926C45.6938 25.0897 47.7767 24.4979 50 24.4979ZM40.3763 28.9984L56.108 47.8507C54.3062 48.8535 52.2233 49.4454 50 49.4454C43.0695 49.4454 37.4999 43.8876 37.4999 36.9717C37.4999 33.9279 38.5813 31.1543 40.3763 28.9984Z" fill="white"/>
</svg>
