<svg width="98" height="130" viewBox="0 0 98 130" fill="none" xmlns="http://www.w3.org/2000/svg">
<path d="M91.4593 92.4936C89.8382 90.8725 88.001 89.5487 86.0233 88.5112C90.8649 85.2474 94.0746 79.7141 94.0746 73.4455C94.0746 63.4434 85.9422 55.3116 75.9407 55.3116C65.9392 55.3116 57.8068 63.444 57.8068 73.4455C57.8068 79.6974 60.9895 85.2199 65.815 88.4835C63.9183 89.4508 62.2053 90.6991 60.6816 92.1634C59.4226 86.9057 54.6783 82.9774 49.0315 82.9774C43.3902 82.9774 38.6296 86.9221 37.3705 92.2175C35.8197 90.7262 34.0905 89.4779 32.2262 88.5107C37.0678 85.2469 40.2775 79.7136 40.2775 73.4449C40.2775 63.4429 32.1452 55.311 22.1436 55.311C12.1421 55.311 4.00973 63.4434 4.00973 73.4449C4.00973 79.724 7.21944 85.2572 12.0718 88.5107C5.01471 92.1742 0.173096 99.534 0.173096 108.018V121.7C0.173096 126.277 3.89616 130 8.473 130H35.8212C36.3615 130 36.9127 129.919 37.4693 129.805C38.0367 129.93 38.6148 130 39.2146 130H58.884C59.4784 130 60.062 129.93 60.6293 129.805C61.1805 129.913 61.7209 130 62.2774 130H89.6256C94.2024 130 97.9255 126.277 97.9255 121.7V108.018C97.9255 102.139 95.6453 96.6058 91.479 92.4835L91.4593 92.4936ZM63.3171 73.4454C63.3171 66.5018 68.9746 60.8442 75.9183 60.8442C82.862 60.8442 88.5195 66.5017 88.5195 73.4454C88.5195 80.3891 82.8782 86.0358 75.9454 86.0466H75.9184H75.8914C68.9586 86.0303 63.3171 80.3891 63.3171 73.4454ZM61.6311 121.711C61.6311 123.235 60.3883 124.477 58.8645 124.477H39.1951C37.6712 124.477 36.4285 123.234 36.4285 121.711V119.555C36.4285 112.611 42.086 106.953 49.0297 106.953C55.9734 106.953 61.6309 112.611 61.6309 119.555L61.6311 121.711ZM49.0299 88.5111C52.5855 88.5111 55.4927 91.4019 55.4927 94.9738C55.4927 98.5401 52.6018 101.437 49.0299 101.437C45.4636 101.437 42.5672 98.5457 42.5672 94.9738C42.5672 91.4075 45.4581 88.5111 49.0299 88.5111ZM9.52377 73.4454C9.52377 66.5018 15.1813 60.8442 22.125 60.8442C29.0687 60.8442 34.7262 66.5017 34.7262 73.4454C34.7262 80.3891 29.0848 86.0358 22.1521 86.0466H22.1251H22.098C15.1545 86.0466 9.52377 80.3891 9.52377 73.4454ZM5.69267 121.711V108.029C5.69267 98.967 13.0523 91.5964 22.114 91.5798H22.1411H22.1681C26.5396 91.5798 30.6625 93.2928 33.7749 96.3945C36.1255 98.745 37.6871 101.749 38.2869 104.97C33.8181 108.277 30.9003 113.572 30.9003 119.549V121.705C30.9003 122.672 31.0786 123.601 31.3866 124.471H8.46501C6.94115 124.471 5.69837 123.229 5.69837 121.705L5.69267 121.711ZM92.3658 121.711C92.3658 123.235 91.123 124.477 89.5992 124.477H66.6776C66.9802 123.607 67.1639 122.678 67.1639 121.711V119.555C67.1639 113.578 64.246 108.283 59.7773 104.976C61.2038 97.2434 67.8719 91.5858 75.9068 91.5858H75.9338H75.9608C80.3486 91.5858 84.4552 93.2987 87.5677 96.4112C90.6801 99.5075 92.3823 103.63 92.3823 108.029V121.711H92.3658Z" fill="#2E3C2B"/>
<path d="M36.1099 52.7945L47.4953 60.3865C47.9654 60.6891 48.4896 60.8566 49.03 60.8566C49.5704 60.8566 50.0945 60.7054 50.5646 60.3865L61.95 52.7945C68.5911 48.369 72.5465 40.966 72.5465 33.0006V16.5958C72.5465 15.6664 72.0926 14.8126 71.3145 14.2992L50.5647 0.46606C49.6353 -0.155353 48.4195 -0.155353 47.4954 0.46606L26.7457 14.2992C25.973 14.8126 25.5137 15.6826 25.5137 16.5958V33.0006C25.5137 40.9708 29.4689 48.3679 36.1099 52.7945ZM31.0467 18.0608L49.0299 6.06476L67.013 18.0608V32.9854C67.013 39.1023 63.9708 44.7867 58.8806 48.1742L49.0299 54.745L39.1791 48.1742C34.0889 44.7862 31.0467 39.1016 31.0467 32.9854V18.0608Z" fill="#2E3C2B"/>
<path d="M45.6964 39.2807C46.2205 39.8048 46.9122 40.0966 47.6471 40.0966H47.7984C48.5874 40.0534 49.3223 39.6805 49.8031 39.0591L60.8697 25.2259C61.8261 24.0371 61.6316 22.2918 60.4428 21.3407C59.254 20.3843 57.5087 20.5788 56.5576 21.7676L47.4255 33.1962L42.6919 28.4626C41.6112 27.3819 39.855 27.3819 38.7798 28.4626C37.6991 29.5433 37.6991 31.2995 38.7798 32.3748L45.6964 39.2914L45.6964 39.2807Z" fill="#2E3C2B"/>
</svg>
