<svg width="106" height="72" viewBox="0 0 106 72" fill="none" xmlns="http://www.w3.org/2000/svg">
<path d="M105.349 31.7992L90.1687 2.4486C89.6649 1.47837 88.797 0.747434 87.7552 0.415944C86.7135 0.0844549 85.5828 0.179452 84.611 0.68012L76.1277 5.06786C75.1698 5.56492 74.4447 6.41751 74.108 7.44284C73.7712 8.46817 73.8496 9.58462 74.3263 10.5528L73.2796 10.9049C72.4685 11.1824 71.6132 11.3081 70.7565 11.2757L60.7641 10.9988C58.1326 10.8941 55.5658 11.8305 53.6198 13.6051L49.5536 17.2242L33.7688 11.3062C34.2883 10.3889 34.4369 9.3075 34.1842 8.28402C33.9315 7.26054 33.2966 6.37261 32.4099 5.80248L24.3678 0.64961C23.4465 0.0609735 22.3293 -0.138269 21.2613 0.095576C20.1932 0.329421 19.2615 0.977266 18.6704 1.89705L0.842523 29.7185C0.254198 30.64 0.0551381 31.7571 0.288963 32.825C0.522787 33.8929 1.17043 34.8246 2.08996 35.4159L10.132 40.5688C10.9931 41.1196 12.028 41.3311 13.0361 41.1624C14.0443 40.9937 14.9539 40.4569 15.5888 39.6558L19.3346 44.3498L17.457 47.2707C16.5658 48.6656 16.2643 50.357 16.6185 51.9739C16.9726 53.5909 17.9537 55.0014 19.3464 55.896C20.3444 56.5385 21.5062 56.8803 22.6932 56.8805C22.9364 56.8803 23.1794 56.8654 23.4208 56.8359C23.3413 57.5259 23.377 58.2242 23.5264 58.9025C23.8695 60.4887 24.8189 61.878 26.1721 62.7738C27.5253 63.6697 29.1751 64.0011 30.7693 63.6974C30.7666 64.1626 30.8154 64.6266 30.9148 65.081C31.2146 66.4691 31.9805 67.7128 33.0851 68.6054C34.1896 69.498 35.5664 69.9857 36.9865 69.9874C37.4423 69.9873 37.8967 69.9382 38.3419 69.8407C39.4693 69.5968 40.5065 69.0443 41.3379 68.2448C41.8201 69.358 42.6167 70.3062 43.63 70.9733C44.6432 71.6403 45.8292 71.9972 47.0423 72C47.4981 71.9995 47.9525 71.9499 48.3977 71.8521C49.1992 71.6801 49.9586 71.3506 50.6318 70.8829C51.305 70.4151 51.8787 69.8184 52.3196 69.1273L53.0237 68.0371L57.3973 70.8535C58.3979 71.4995 59.5637 71.843 60.7547 71.8428C61.2101 71.8427 61.6641 71.7935 62.109 71.6961C63.6361 71.3666 64.9841 70.4766 65.8871 69.2017C66.79 67.9268 67.1821 66.3598 66.9861 64.8099C68.1388 64.9283 69.3018 64.7247 70.3457 64.2216C71.3896 63.7186 72.2736 62.936 72.8994 61.9607C73.6014 60.8651 73.9402 59.5761 73.8675 58.277C74.8193 58.5307 75.8175 58.5561 76.781 58.3512C77.7444 58.1463 78.6459 57.7169 79.4121 57.0978C80.1783 56.4788 80.7876 55.6877 81.1903 54.7888C81.5931 53.8899 81.778 52.9086 81.73 51.9248C83.0433 52.2724 84.4339 52.1836 85.6923 51.6717C86.9506 51.1599 88.0084 50.2528 88.7062 49.0872C89.4039 47.9216 89.7038 46.5608 89.5606 45.2099C89.4173 43.859 88.8387 42.5913 87.912 41.598L89.6488 40.1686C90.0136 40.7886 90.534 41.3025 91.1585 41.6594C91.783 42.0163 92.4899 42.2039 93.2093 42.2035C93.8662 42.2038 94.5135 42.0456 95.0963 41.7423L103.58 37.3581C104.55 36.854 105.281 35.986 105.612 34.944C105.944 33.9021 105.85 32.7712 105.349 31.7992ZM50.821 20.0172L50.8668 19.9773L55.5702 15.7902C56.257 15.1574 57.0623 14.6668 57.9397 14.3468C58.817 14.0267 59.749 13.8836 60.682 13.9255L70.6744 14.2024C71.8696 14.2439 73.0624 14.0681 74.1949 13.6838L75.6806 13.1921L88.2653 37.5118L85.4758 39.8072L70.2519 30.0518C69.4386 29.5223 68.5517 29.1154 67.6198 28.8443C64.9958 28.0663 63.2437 25.7486 62.8084 22.4862C62.7779 22.2542 62.6924 22.0329 62.5588 21.8407C62.4253 21.6486 62.2478 21.4912 62.041 21.3817C61.8342 21.2722 61.6042 21.2138 61.3702 21.2114C61.1362 21.209 60.9051 21.2627 60.6961 21.3679C57.4619 23.5299 54.4462 26.002 51.6917 28.7492C51.0549 29.2493 50.3022 29.5807 49.5034 29.7129C48.7045 29.8451 47.8853 29.7739 47.1212 29.5057C46.3572 29.2375 45.6731 28.781 45.1322 28.1785C44.5913 27.5759 44.211 26.8468 44.0264 26.0584L50.821 20.0172ZM11.7139 38.0997L3.67302 32.9516C3.40801 32.7809 3.22134 32.5123 3.15383 32.2045C3.08631 31.8966 3.14346 31.5745 3.31275 31.3087L21.1407 3.48011C21.2251 3.34864 21.3347 3.23521 21.4632 3.14638C21.5917 3.05755 21.7366 2.99508 21.8894 2.96259C21.9754 2.94395 22.0631 2.93451 22.1511 2.93443C22.3761 2.93408 22.5965 2.99845 22.7859 3.11984L30.8221 8.27271C31.0861 8.44416 31.272 8.71272 31.3394 9.02022C31.4069 9.32773 31.3504 9.64942 31.1824 9.91562L30.321 11.2605V11.2675L14.4576 36.0261C14.2591 36.2035 14.1127 36.4315 14.0339 36.6857L13.3591 37.7418C13.1881 38.0071 12.9189 38.1937 12.6105 38.2608C12.3021 38.3279 11.9797 38.27 11.7139 38.0997ZM20.933 53.4246C20.1936 52.9502 19.6728 52.2016 19.4851 51.3434C19.2974 50.4852 19.4581 49.5876 19.932 48.8479L24.5168 41.6895C24.9978 40.967 25.7432 40.4623 26.5927 40.284C27.4421 40.1058 28.3275 40.2682 29.0583 40.7364C29.7892 41.2046 30.3069 41.9411 30.5 42.7872C30.6932 43.6334 30.5463 44.5215 30.091 45.2605L25.5049 52.4189C25.0316 53.158 24.2842 53.679 23.427 53.8675C22.5698 54.0561 21.6728 53.8968 20.933 53.4246ZM27.8391 60.3541C27.1014 59.8783 26.5821 59.1298 26.3945 58.2723C26.207 57.4147 26.3664 56.5178 26.838 55.7774L34.3591 44.0424C34.5932 43.6767 34.8976 43.361 35.2545 43.1137C35.6115 42.8663 36.0139 42.6922 36.4385 42.6013C36.6755 42.5491 36.9175 42.5228 37.1602 42.5227C37.753 42.5257 38.3342 42.6878 38.843 42.992C39.3517 43.2963 39.7695 43.7315 40.0527 44.2523C40.3359 44.7731 40.4741 45.3604 40.4529 45.9529C40.4316 46.5453 40.2518 47.1212 39.932 47.6204L37.3714 51.6103L32.4099 59.3555C31.9356 60.0933 31.1879 60.6129 30.331 60.8001C29.4741 60.9873 28.5779 60.8269 27.8391 60.3541ZM37.7141 66.9833C37.0747 67.1246 36.4077 67.0728 35.7978 66.8343C35.188 66.5958 34.6627 66.1814 34.2888 65.6438C33.9149 65.1062 33.7093 64.4696 33.698 63.8148C33.6867 63.1601 33.8702 62.5167 34.2253 61.9665L34.8824 60.9409L39.4274 53.84L43.246 47.8821C43.4802 47.516 43.7847 47.2001 44.1419 46.9525C44.499 46.705 44.9017 46.5307 45.3266 46.4398C45.5637 46.3881 45.8057 46.3618 46.0484 46.3612C46.64 46.3655 47.2197 46.5281 47.7272 46.8322C48.2348 47.1364 48.6516 47.5709 48.9344 48.0906C49.2172 48.6103 49.3556 49.1962 49.3353 49.7875C49.315 50.3789 49.1368 50.954 48.819 51.4531L45.2633 57.0014L41.8073 62.3995L39.7959 65.5387C39.5618 65.9053 39.2572 66.2217 38.8999 66.4697C38.5425 66.7177 38.1395 66.8923 37.7141 66.9833ZM47.7699 68.997C47.1314 69.1357 46.4662 69.0823 45.8581 68.8436C45.2499 68.6049 44.726 68.1915 44.3524 67.6555C43.9789 67.1195 43.7723 66.4849 43.7587 65.8317C43.7452 65.1785 43.9253 64.5359 44.2764 63.9849L47.7335 58.5868L48.4317 57.4966C48.6639 57.1255 48.9674 56.8042 49.3246 56.5511C49.6818 56.2981 50.0857 56.1184 50.5128 56.0225C50.9399 55.9266 51.3818 55.9164 51.8129 55.9924C52.244 56.0684 52.6558 56.2291 53.0243 56.4653C53.3929 56.7015 53.711 57.0084 53.9601 57.3684C54.2093 57.7283 54.3845 58.1341 54.4758 58.5622C54.5671 58.9903 54.5726 59.4323 54.4919 59.8626C54.4113 60.2928 54.2461 60.7028 54.0059 61.0688L49.8505 67.5536C49.616 67.919 49.3113 68.2342 48.9542 68.4812C48.5971 68.7281 48.1946 68.9018 47.7699 68.9923V68.997ZM86.1365 47.6685C85.6595 48.4108 84.9076 48.9336 84.0456 49.1221C83.1836 49.3107 82.2821 49.1496 81.5387 48.6742L78.8584 46.9562L70.0947 41.3398C69.9331 41.2225 69.7493 41.1394 69.5545 41.0957C69.3597 41.0519 69.158 41.0484 68.9618 41.0853C68.7656 41.1222 68.5789 41.1988 68.4134 41.3104C68.2478 41.4219 68.1067 41.5661 67.9988 41.7341C67.8909 41.9021 67.8184 42.0903 67.7858 42.2873C67.7532 42.4843 67.7611 42.6858 67.8091 42.8796C67.8572 43.0734 67.9442 43.2554 68.065 43.4143C68.1858 43.5733 68.3378 43.706 68.5116 43.8041L77.2695 49.4159L77.2789 49.4229C78.008 49.9062 78.5176 50.657 78.6974 51.5131C78.8771 52.3692 78.7126 53.2616 78.2394 53.9973C77.7662 54.733 77.0224 55.2529 76.1688 55.4444C75.3153 55.6358 74.4207 55.4836 73.6786 55.0205L71.0018 53.306L65.0721 49.4217C64.7467 49.2138 64.3525 49.1426 63.9749 49.2235C63.5973 49.3044 63.2669 49.5309 63.0553 49.8539C62.8437 50.1769 62.7679 50.5703 62.8445 50.9488C62.9211 51.3272 63.1438 51.6602 63.4644 51.8755L69.3976 55.7622H69.4035C69.7719 55.9973 70.0903 56.3028 70.3407 56.661C70.5911 57.0193 70.7684 57.4233 70.8626 57.8501C70.9568 58.2769 70.966 58.718 70.8897 59.1484C70.8135 59.5787 70.6532 59.9898 70.418 60.3582C70.1828 60.7266 69.8774 61.0451 69.5191 61.2954C69.1609 61.5458 68.7569 61.7231 68.3301 61.8173C67.9033 61.9116 67.4621 61.9208 67.0318 61.8445C66.6014 61.7682 66.1903 61.6079 65.8219 61.3727L64.1509 60.3013L60.9155 58.2277C60.5865 58.0186 60.188 57.9487 59.8074 58.0334C59.4269 58.1181 59.0957 58.3505 58.8865 58.6795C58.6774 59.0085 58.6075 59.4071 58.6922 59.7876C58.7769 60.1681 59.0093 60.4994 59.3383 60.7085L62.5737 62.7809C62.9421 63.0169 63.2604 63.3232 63.5104 63.6822C63.7604 64.0413 63.9373 64.446 64.0309 64.8734C64.1245 65.3008 64.133 65.7424 64.056 66.1731C63.9789 66.6038 63.8177 67.015 63.5817 67.3834C63.3457 67.7518 63.0394 68.0701 62.6804 68.3201C62.3214 68.5702 61.9166 68.747 61.4892 68.8407C61.0619 68.9343 60.6202 68.9428 60.1896 68.8657C59.7589 68.7886 59.3476 68.6275 58.9792 68.3915L54.602 65.575L56.4797 62.6507C57.0817 61.7126 57.4214 60.6303 57.4634 59.5165C57.5055 58.4026 57.2483 57.2978 56.7187 56.3171C56.1891 55.3363 55.4063 54.5153 54.4519 53.9395C53.4974 53.3638 52.4062 53.0543 51.2916 53.0432C52.0322 51.8848 52.3697 50.5144 52.2517 49.1446C52.1337 47.7748 51.5669 46.4822 50.6392 45.4676C49.7114 44.4529 48.4747 43.7728 47.1209 43.533C45.7671 43.2931 44.372 43.5068 43.1521 44.1409C42.8675 43.1308 42.3327 42.2087 41.5971 41.4602C40.8615 40.7116 39.949 40.1607 38.9439 39.8585C37.9389 39.5563 36.8738 39.5125 35.8474 39.7312C34.8209 39.9499 33.8662 40.4241 33.0717 41.1098C32.5891 39.9252 31.7505 38.9198 30.6719 38.2323C29.2787 37.3398 27.5884 37.0362 25.9717 37.3882C24.355 37.7402 22.9438 38.719 22.0478 40.11L21.0057 41.7353L17.2751 37.0624L32.1599 13.8375L47.0763 19.4234L41.4846 24.4014C41.3142 24.5528 41.1815 24.7418 41.0969 24.9534C41.0124 25.1651 40.9784 25.3936 40.9976 25.6207C41.1149 27.0223 41.6117 28.3655 42.4347 29.5062C43.2577 30.6468 44.3757 31.5418 45.6688 32.0951C46.962 32.6484 48.3814 32.8392 49.7747 32.6469C51.168 32.4546 52.4827 31.8865 53.5776 31.0035C53.6093 30.9777 53.6398 30.9519 53.6691 30.9237C55.8022 28.8706 58.0475 26.9372 60.3945 25.1325C60.8217 26.6718 61.6318 28.0779 62.7494 29.2195C63.8669 30.361 65.2555 31.2009 66.7854 31.6607C67.4506 31.8529 68.0834 32.1432 68.663 32.5221L85.125 43.0707C85.8682 43.5468 86.3922 44.2983 86.5819 45.1603C86.7715 46.0224 86.6114 46.9245 86.1365 47.6685ZM102.818 34.0558C102.771 34.2051 102.695 34.3435 102.594 34.4632C102.494 34.5828 102.37 34.6813 102.231 34.7529L93.7479 39.1406C93.4672 39.2852 93.1407 39.3127 92.8398 39.217C92.5389 39.1213 92.2882 38.9103 92.1425 38.6302L91.4091 37.2102L77.902 11.0891C77.8908 11.0348 77.8767 10.9811 77.8598 10.9284C77.7932 10.7293 77.6848 10.5468 77.5418 10.3932L76.9656 9.2784C76.821 8.99771 76.7935 8.67118 76.8892 8.37029C76.9849 8.0694 77.1959 7.81869 77.476 7.67305L85.9593 3.28648C86.1259 3.19938 86.3111 3.15388 86.4991 3.15387C86.6239 3.15434 86.7478 3.17414 86.8664 3.21255C87.0159 3.25894 87.1545 3.33475 87.2742 3.43551C87.394 3.53628 87.4923 3.65997 87.5635 3.7993L102.744 33.1475C102.816 33.2863 102.859 33.438 102.872 33.5937C102.884 33.7494 102.866 33.9072 102.818 34.0558Z" fill="white"/>
</svg>
