<svg width="80" height="102" viewBox="0 0 80 102" fill="none" xmlns="http://www.w3.org/2000/svg">
<path d="M4.16162 0.785156C8.66922 0.706994 13.1909 0.785152 17.6899 0.785156L71.9341 0.78125H71.9351C73.7038 0.77584 75.0647 0.812546 76.105 0.974609C77.1456 1.13677 77.9024 1.42903 78.4302 1.96289C78.9584 2.49732 79.2217 3.23787 79.3579 4.21387C79.4939 5.18836 79.5084 6.43726 79.5073 8.01855L79.5171 9.07324C79.5214 9.4199 79.5239 9.75888 79.5171 10.082C79.5032 10.7363 79.4504 11.3646 79.2876 11.9492C79.1237 12.5374 78.8485 13.081 78.3931 13.5645C77.9696 14.014 77.3977 14.4006 76.6362 14.7275C76.7893 16.8189 76.2574 19.1399 75.8472 21.1074C73.5805 31.991 66.6087 41.9302 57.3149 48.0195L57.314 48.0186C56.9046 48.287 55.9785 48.8242 55.1196 49.3398C54.6866 49.5998 54.2685 49.8561 53.9331 50.0752C53.5865 50.3017 53.3576 50.4694 53.2778 50.5566C53.1518 50.6943 53.1002 50.8151 53.0864 50.918C53.0727 51.021 53.0938 51.1318 53.1567 51.2549C53.2884 51.5124 53.5821 51.7844 53.9761 52.0547C54.3631 52.3202 54.8152 52.5634 55.2261 52.7744C55.6249 52.9793 56.0064 53.1642 56.2153 53.2988C68.7813 61.3778 75.521 72.6969 76.6128 87.4199C77.6383 87.8735 78.6515 88.5766 79.0952 89.7256H79.0962C79.2403 90.1009 79.3406 90.6925 79.4106 91.3691C79.4815 92.0533 79.5232 92.8491 79.5415 93.6465C79.5779 95.2361 79.5208 96.859 79.4048 97.6426C79.2612 98.6203 78.8939 99.3556 78.3257 99.9297C77.7625 100.499 77.0168 100.895 76.1421 101.222L76.0991 101.237H7.41455L6.45947 101.249C5.47259 101.258 4.41114 101.237 3.47021 100.989C2.83649 100.823 2.24278 100.55 1.75244 100.105C1.26009 99.6589 0.885087 99.0505 0.67334 98.2334C0.594403 97.9272 0.540699 97.348 0.505371 96.6602C0.469594 95.9634 0.452001 95.129 0.44873 94.2939C0.442239 92.6335 0.495035 90.9358 0.599121 90.3203L0.652832 90.0693C0.950455 88.8776 1.8843 87.7707 3.07471 87.3975C4.17206 72.7721 11.5643 60.4775 24.2759 52.8525L25.0454 52.3818C25.7378 51.9467 26.206 51.613 26.4937 51.3428C26.6859 51.1622 26.7742 51.031 26.8062 50.9385C26.8318 50.864 26.8249 50.8076 26.7817 50.7383C26.7291 50.6538 26.6218 50.5526 26.436 50.4268C26.2536 50.3032 26.0174 50.1702 25.729 50.0156C25.1576 49.7093 24.3997 49.3267 23.5503 48.79C11.6538 41.2745 3.91465 28.9976 3.31592 14.7432C1.90578 14.1953 0.80957 13.034 0.57666 11.459L0.54541 11.1885C0.476878 10.457 0.445003 9.05804 0.450684 7.6875C0.453948 6.89999 0.469323 6.11433 0.498535 5.45801C0.527406 4.80942 0.569957 4.26692 0.631348 3.97852L0.712402 3.65625C1.17583 2.07836 2.49109 1.02787 4.12939 0.787109L4.14502 0.785156H4.16162ZM74.061 90.7646C69.2817 90.6546 64.4911 90.7475 59.6978 90.7637L57.6431 90.7646L17.3257 90.7559H9.35205C9.02994 90.7558 7.81603 90.7217 6.60107 90.7305C5.99961 90.7348 5.41372 90.7501 4.96436 90.7852C4.73887 90.8028 4.55438 90.8251 4.42236 90.8516C4.36534 90.863 4.32392 90.8749 4.29541 90.8848C4.29395 90.8902 4.29215 90.8967 4.29053 90.9033C4.27774 90.9558 4.26422 91.0303 4.25049 91.127C4.22306 91.3202 4.19764 91.584 4.17627 91.8975C4.1336 92.5235 4.10782 93.3345 4.10889 94.1504C4.10997 94.9671 4.1384 95.7828 4.20361 96.4199C4.23632 96.7393 4.27732 97.0068 4.32666 97.2041C4.35137 97.3029 4.37619 97.3776 4.3999 97.4297C4.40346 97.4375 4.40756 97.4442 4.41064 97.4502C5.16953 97.5566 6.15286 97.5805 7.16162 97.5742C8.19234 97.5678 9.28569 97.5303 10.1118 97.5303H72.3091C73.2509 97.5303 73.9629 97.5876 74.478 97.6113C74.7387 97.6233 74.9434 97.6266 75.1079 97.6133C75.2724 97.5999 75.3781 97.5708 75.4507 97.5312C75.5719 97.465 75.6738 97.3272 75.731 96.8916C75.7878 96.4579 75.7909 95.8169 75.7964 94.8535C75.7997 94.1925 75.8573 93.5881 75.896 93.0713C75.9355 92.5444 75.9534 92.1207 75.8911 91.7812C75.8314 91.4555 75.7018 91.2281 75.4526 91.0674C75.2218 90.9185 74.8653 90.8111 74.311 90.7754L74.061 90.7646ZM39.8735 57.9658C38.2526 59.8634 35.8171 61.6339 33.3003 63.3594C30.6707 65.1621 27.9517 66.9191 25.8989 68.752C20.5991 73.4861 16.7179 80.0254 15.6997 87.1025C18.3541 87.1424 21.0076 87.1006 23.6704 87.1006H64.2534C62.9513 81.5271 61.0782 77.374 58.3804 73.7949C55.6309 70.1474 52.0167 67.0826 47.2505 63.7139V63.7129C44.7699 61.9619 41.9577 60.294 39.8735 57.9658ZM72.9282 14.8154C70.8451 14.7801 68.7593 14.8184 66.6626 14.8184H6.95264C7.69362 27.2321 14.1911 38.3433 24.5845 45.1055H24.5835C25.2332 45.5278 26.1352 45.9985 27.0288 46.5078C27.9055 47.0075 28.7768 47.5458 29.3081 48.0859H29.3091C30.9799 49.7798 30.8615 52.3423 29.2925 54.0439C28.8855 54.4836 28.2885 54.856 27.6948 55.1865C27.0844 55.5263 26.4885 55.8161 26.0083 56.1162C16.6765 61.9977 10.2248 70.0674 7.66846 81.0234C7.44712 81.9702 7.15678 83.0712 6.97412 84.1816C6.80432 85.214 6.73632 86.2265 6.89404 87.0977C8.58943 87.0897 10.3161 87.0398 12.0229 87.0947C12.9908 81.7138 14.5998 77.2364 17.1196 73.293C19.6726 69.2977 23.1515 65.8624 27.8198 62.5928L27.8208 62.5918L32.1479 59.5928H32.1489C33.2828 58.814 34.6222 58.016 35.7593 57.0371C36.891 56.0628 37.7772 54.944 38.021 53.5576L38.0737 53.1895C38.1829 52.2577 38.2007 50.8389 38.1841 49.377C38.1659 47.7796 38.1083 46.2006 38.0894 45.1426C31.111 41.9732 23.8652 36.9496 18.9165 30.9971L18.4409 30.4141C18.2661 30.1943 18.0796 30.0075 17.8911 29.8252C17.7062 29.6464 17.5116 29.4648 17.3452 29.2695C16.998 28.862 16.7588 28.3818 16.8071 27.6377L16.8198 27.3936L16.8237 27.335L16.8521 27.2842C17.404 26.3017 18.5111 26.0262 19.6167 25.9707C20.1774 25.9426 20.7627 25.9696 21.314 26.0029C21.8707 26.0366 22.3868 26.0762 22.8335 26.0762L51.0415 26.0801C51.4219 26.0801 52.2285 26.0599 53.2456 26.0371C54.2598 26.0144 55.4783 25.9898 56.6763 25.9824C57.8736 25.9751 59.0547 25.9847 59.9917 26.0312C60.4597 26.0545 60.8718 26.0868 61.1968 26.1318C61.3592 26.1544 61.5041 26.1809 61.6255 26.2119C61.7414 26.2415 61.855 26.2802 61.9429 26.3359C62.252 26.5315 62.4743 26.7668 62.6108 27.0371C62.7474 27.3076 62.7912 27.5984 62.769 27.8926C62.7254 28.471 62.4254 29.0794 62.0464 29.6465C61.4795 30.4946 60.6728 31.3354 60.1001 31.9336L59.6226 32.4424C54.1164 38.6601 48.7302 41.5151 41.7505 45.1328L41.7466 49.4297C41.7477 51.0684 41.7583 52.2634 41.8599 53.2021C41.9609 54.1357 42.151 54.7965 42.4985 55.3721C42.8478 55.9505 43.3687 56.4631 44.1694 57.0801C44.9726 57.6989 46.0339 58.4064 47.4546 59.3848C58.0611 66.6865 65.5672 73.6166 67.9214 87.0986C69.574 87.0958 71.2483 87.065 72.9077 87.0967C72.7513 85.5285 72.6061 83.985 72.3345 82.4502L72.2026 81.7539C69.7626 69.7947 62.7737 61.3682 52.5249 55.3389C51.0027 54.4455 49.6211 53.5261 49.4165 51.4814C49.3263 50.585 49.4329 49.8532 49.6929 49.2373C49.9528 48.6216 50.3597 48.1379 50.8442 47.7275C51.3263 47.3193 51.8909 46.9785 52.4712 46.6514C53.0578 46.3207 53.6561 46.0063 54.2368 45.6377C64.5668 39.0725 72.5803 27.2577 72.9282 14.8154ZM32.1909 29.8145C29.044 29.8144 25.8958 29.7265 22.769 29.8018C25.7628 33.3072 28.4776 34.9162 32.0396 37.6035C34.0953 38.9108 37.6218 41.0502 39.8647 41.8232C46.157 39.3443 52.4707 34.7296 57.0737 29.8145H32.1909ZM66.5532 4.41895L5.02588 4.42285C4.84738 4.43662 4.7348 4.44099 4.60596 4.45312C4.48486 4.46454 4.4097 4.48006 4.35889 4.50293C4.31785 4.52146 4.29001 4.5458 4.26514 4.59277C4.23577 4.64824 4.20668 4.74427 4.19385 4.91309C4.1593 5.39492 4.07301 6.83977 4.07568 8.23145C4.07703 8.92875 4.10139 9.60633 4.16357 10.1396C4.19472 10.4067 4.234 10.6302 4.28271 10.7988C4.31617 10.9146 4.35167 10.9848 4.37646 11.0264C5.22765 11.145 6.1573 11.059 7.07275 11.0547H73.2593C73.7533 11.0547 74.219 11.0897 74.6704 11.0518L74.6821 11.0508H74.6948C74.7836 11.0519 74.8922 11.058 74.9937 11.0625C75.0994 11.0672 75.2064 11.0706 75.3091 11.0674C75.5007 11.0614 75.6281 11.0301 75.7007 10.9883C75.7098 10.9548 75.7206 10.9047 75.731 10.8359C75.7532 10.6879 75.7729 10.4807 75.7886 10.2275C75.8198 9.72272 75.8359 9.05705 75.8433 8.36523C75.8542 7.3269 75.8437 6.23909 75.8286 5.56445L75.813 5.04492C75.8033 4.84496 75.7656 4.72452 75.7231 4.65039C75.684 4.58225 75.633 4.53916 75.561 4.50879C75.4821 4.47553 75.3764 4.45633 75.2319 4.44629C75.0851 4.43609 74.9279 4.43719 74.7368 4.43262V4.43164C72.015 4.37099 69.2889 4.41894 66.5532 4.41895Z" fill="white" stroke="white" stroke-width="0.5"/>
</svg>
