<svg width="32" height="32" viewBox="0 0 32 32" fill="none" xmlns="http://www.w3.org/2000/svg">
<path d="M16 0.5C24.5604 0.5 31.5 7.43959 31.5 16C31.5 24.5604 24.5604 31.5 16 31.5C7.43959 31.5 0.5 24.5604 0.5 16C0.5 7.43959 7.43959 0.5 16 0.5Z" stroke="#1C120E"/>
<g clip-path="url(#clip0_61_1842)">
<path d="M19.3335 9.33325H12.6668C10.8259 9.33325 9.3335 10.8256 9.3335 12.6666V19.3333C9.3335 21.1742 10.8259 22.6666 12.6668 22.6666H19.3335C21.1744 22.6666 22.6668 21.1742 22.6668 19.3333V12.6666C22.6668 10.8256 21.1744 9.33325 19.3335 9.33325Z" stroke="#1C120E" stroke-linecap="round" stroke-linejoin="round"/>
<path d="M18.6668 15.58C18.7491 16.1348 18.6543 16.7014 18.396 17.1993C18.1376 17.6972 17.7289 18.1009 17.2279 18.3531C16.7269 18.6052 16.1591 18.693 15.6053 18.6039C15.0515 18.5148 14.54 18.2533 14.1434 17.8567C13.7467 17.4601 13.4853 16.9485 13.3962 16.3948C13.3071 15.841 13.3948 15.2732 13.647 14.7722C13.8992 14.2712 14.3029 13.8625 14.8008 13.6041C15.2987 13.3458 15.8653 13.251 16.4201 13.3333C16.9861 13.4172 17.51 13.6809 17.9146 14.0855C18.3192 14.4901 18.5829 15.014 18.6668 15.58Z" stroke="#1C120E" stroke-linecap="round" stroke-linejoin="round"/>
<path d="M19.6665 12.3333H19.6732" stroke="#1C120E" stroke-linecap="round" stroke-linejoin="round"/>
</g>
<defs>
<clipPath id="clip0_61_1842">
<rect width="16" height="16" fill="white" transform="translate(8 8)"/>
</clipPath>
</defs>
</svg>
