<svg width="106" height="96" viewBox="0 0 106 96" fill="none" xmlns="http://www.w3.org/2000/svg">
<path d="M104.333 73.5205L95.9127 71.8025C95.5486 71.7307 95.1793 71.8076 94.8665 72.0025C91.5279 70.8281 90.292 69.0332 88.6663 66.628C86.5688 63.5151 84.0149 59.7407 76.0405 56.6278L76.7431 52.402C80.8611 52.5251 83.8458 51.8533 85.9996 50.3456C89.1279 48.1558 90.1432 44.4634 90.728 41.1455C91.4921 36.8018 90.9895 33.612 89.1485 31.1146C86.692 27.7811 81.8869 25.7607 74.0298 24.7658C70.1887 24.2786 50.7886 21.1248 43.6966 6.89933C43.7017 3.74037 41.7222 1.14541 38.8144 0.647972C37.1271 0.360788 35.3887 0.796691 34.0349 1.84287C32.799 2.79673 32.0503 4.14546 31.9271 5.63777C31.4194 11.7199 30.7168 17.7918 29.8296 23.8889C25.2398 23.9658 21.532 27.7146 21.532 32.325C21.532 35.8994 23.7679 39.0225 27.0193 40.2327C25.8449 46.1354 24.5115 52.0945 22.9731 58.1556C22.6039 59.6121 22.8706 61.1351 23.7219 62.448C24.6501 63.8736 26.1425 64.8582 27.8194 65.1404C28.1476 65.1968 28.4707 65.2224 28.7886 65.2224C31.3374 65.2224 33.6041 63.4891 34.5169 60.812C42.4556 52.0735 51.681 49.1299 65.7271 51.0119L64.5989 58.3044C63.3271 58.8839 62.1322 59.3865 61.3321 59.607C60.445 59.848 59.609 60.7711 59.2655 61.8326C57.2911 62.0378 56.0243 63.2531 55.4655 64.525C54.9629 65.6686 54.9167 66.9404 55.2655 68.0789C54.527 68.2738 53.7527 68.6481 53.1321 69.3609C52.2141 70.4122 51.891 71.9148 52.1833 73.8123C52.3423 74.8738 53.0039 75.8122 53.8706 76.5098C52.8757 77.5764 52.3527 79.0996 52.8501 80.9713C53.0757 81.8123 53.8296 82.9303 54.8603 83.7355C54.4911 84.915 54.5424 86.2073 55.0449 87.392C55.6091 88.7202 57.2348 91.069 61.7733 91.8485C63.5322 92.151 64.9271 92.428 66.1579 92.669C68.6862 93.1716 70.4041 93.4844 72.3683 93.4844C74.8657 93.4844 77.7633 92.9818 83.2351 91.7151C86.5377 90.9561 86.83 91.0228 88.7172 91.474C89.2352 91.5971 89.8506 91.7407 90.6198 91.8997C90.4967 92.6587 90.9736 93.3869 91.7275 93.5561L100.01 95.4022C100.112 95.4279 100.22 95.4381 100.328 95.4381C100.605 95.4381 100.882 95.3612 101.117 95.2074C101.446 94.9971 101.676 94.6638 101.753 94.2843L102.143 92.4381C103.307 86.9662 104.507 81.3097 105.482 75.1612C105.605 74.3919 105.097 73.6586 104.333 73.5047L104.333 73.5205ZM86.7951 32.8434C88.1489 34.6793 88.4771 37.0845 87.8516 40.6384C87.1644 44.5616 86.1387 46.6847 84.3233 47.9564C81.7386 49.7667 77.0719 49.9924 69.651 48.6744C68.9946 48.5564 68.3689 48.4641 67.733 48.3667L70.6511 27.1814C71.9178 27.4173 72.9486 27.5711 73.6512 27.6634C80.5692 28.5404 84.8668 30.2378 86.7901 32.8532L86.7951 32.8434ZM24.4456 32.3254C24.4456 29.4792 26.6149 27.1612 29.379 26.8586C28.8457 30.3202 28.2508 33.7973 27.5892 37.2896C25.7123 36.3921 24.4456 34.4946 24.4456 32.3202V32.3254ZM28.3072 62.27C27.4457 62.1213 26.6457 61.5982 26.1636 60.8598C25.7585 60.2393 25.6303 59.5316 25.7944 58.8752C27.461 52.3058 28.9022 45.8493 30.1432 39.4595V39.4544C32.3381 28.1414 33.892 17.0337 34.8253 5.88506C34.8817 5.21839 35.2304 4.59786 35.8151 4.15171C36.3741 3.71581 37.0869 3.47991 37.7997 3.47991C37.974 3.47991 38.1484 3.49529 38.3228 3.52606C40.1638 3.83889 40.892 5.64407 40.7895 7.18259C39.651 24.7261 36.6406 42.3733 31.8457 59.6398C31.4201 61.1732 30.0662 62.5675 28.3072 62.27ZM49.3639 48.4905C44.4203 49.6494 40.015 51.8905 36.0097 55.2957C39.6816 40.9726 42.138 26.4237 43.3431 11.9155C46.6816 16.5771 51.5535 20.3874 57.9327 23.249C61.4814 24.8387 64.9379 25.8798 67.7944 26.5618L64.8456 47.9677C58.8865 47.2702 53.8768 47.434 49.3639 48.4905ZM69.1379 51.5418C70.8354 51.8443 72.3687 52.0495 73.8149 52.1982L73.2406 55.6495C72.9534 55.5572 72.6816 55.4649 72.379 55.3726C71.5944 55.1367 70.7584 55.4239 67.7738 56.8239L68.5995 51.4598C68.779 51.4906 68.9482 51.5111 69.1328 51.547L69.1379 51.5418ZM58.1275 65.706C58.3839 65.1214 58.8762 64.7983 59.5531 64.7265C59.866 65.3111 60.3634 65.9317 61.1532 66.5419C61.1686 66.5522 61.184 66.5676 61.1994 66.5778C64.0301 68.5778 67.3431 67.6035 69.7995 66.8445C70.4457 66.9573 71.1637 67.0752 71.9996 67.2035C73.5791 67.6599 73.7945 68.7778 73.8099 69.2497C73.8304 69.9061 73.5124 70.6394 72.9073 70.9625C72.3842 70.8651 71.8611 70.7676 71.3483 70.6702C67.3277 69.9163 63.5122 69.1984 58.5071 67.9829C57.9123 67.3624 57.8199 66.3829 58.1174 65.706L58.1275 65.706ZM55.3224 71.2856C55.7737 70.7676 56.8352 70.783 57.343 70.7933C57.4558 70.7933 57.5789 70.7933 57.7019 70.7881C62.8405 72.0395 66.7226 72.7676 70.815 73.537C71.4099 73.6498 72.015 73.7626 72.6253 73.8754C72.7227 73.9267 72.8099 73.978 72.9227 74.019C73.4355 74.2242 74.4971 74.6447 74.7894 75.4037C75.0305 76.0345 74.7279 76.8909 74.4253 77.4908C74.2048 77.937 72.9791 78.2447 72.2048 78.0447C72.1792 78.0396 72.1586 78.0447 72.133 78.0396C72.1125 78.0345 72.1022 78.0242 72.0817 78.0191C67.1842 77.2088 62.7584 76.2395 57.2046 74.9318C57.1841 74.9267 57.1687 74.9318 57.1533 74.9318C57.1328 74.9267 57.1123 74.9164 57.0867 74.9113C56.2251 74.7831 55.1379 73.9625 55.0456 73.3779C54.8969 72.3932 54.9892 71.6445 55.3122 71.2803L55.3224 71.2856ZM69.3488 84.2243H69.3129C69.3026 84.2243 69.2924 84.214 69.277 84.214L68.7436 84.132C64.7384 83.532 62.0871 83.1371 57.1589 81.7832C56.4665 81.4755 55.7537 80.5729 55.6614 80.2344C55.2768 78.778 56.2666 78.1369 56.9537 77.8703C62.2205 79.1062 66.5128 80.0395 71.2046 80.8293C71.7739 81.3626 72.8406 82.6088 72.0457 83.9063C71.7585 84.1217 70.5744 84.4705 69.3488 84.2243ZM57.7178 86.2705C57.528 85.8192 57.487 85.3577 57.5639 84.9114C61.6101 85.973 64.1795 86.3935 67.5487 86.9012C68.4 87.3986 68.7847 88.173 68.7026 88.7166C68.5847 89.5166 67.4616 89.7935 66.9846 89.8756C66.9795 89.8756 66.9795 89.8807 66.9744 89.8807C66.8821 89.8602 66.8 89.8448 66.7077 89.8294C65.4615 89.5833 64.0513 89.3012 62.2513 88.9935C59.9333 88.5935 58.282 87.6037 57.7128 86.2704L57.7178 86.2705ZM82.5646 88.8962C76.2619 90.3475 73.6567 90.7423 71.0875 90.5372C71.3388 90.1167 71.5131 89.6552 71.5901 89.1526C71.6926 88.4756 71.6003 87.7884 71.3695 87.132C72.6773 86.9422 73.8876 86.4243 74.4568 85.5474C75.5902 83.8038 75.3799 82.0909 74.6979 80.7165C75.703 80.3678 76.5799 79.7319 77.0467 78.7882C77.8569 77.1523 78.0159 75.66 77.5185 74.3574C77.1441 73.383 76.4774 72.7061 75.8005 72.2291C76.1133 71.7984 76.3543 71.306 76.5133 70.7778C77.4056 71.9009 78.4519 72.9214 79.8313 73.4137C80.5902 73.6855 81.4261 73.2906 81.6929 72.5316C81.9647 71.7727 81.5698 70.9368 80.8108 70.67C79.6364 70.2495 78.6416 68.8239 77.6774 67.4393C76.3697 65.5623 74.8877 63.434 72.4414 63.3264C71.4312 63.2802 70.3286 63.6238 69.0568 64.0136C66.9697 64.6546 64.6004 65.3829 62.9029 64.2033C62.4464 63.8495 62.1593 63.4956 62.0464 63.1828C62.0362 63.0802 62.0311 62.9777 62.0003 62.8854C62.0157 62.6546 62.1439 62.4649 62.2259 62.3777C63.7491 61.9366 65.9594 60.8905 68.103 59.8751C69.4005 59.2597 71.1441 58.4391 71.8005 58.2392C81.4929 61.2289 84.011 64.9573 86.2312 68.2547C87.9646 70.824 89.621 73.2599 93.8877 74.7574C93.0416 80.0601 92.0672 84.8909 91.1902 89.0608C90.4569 88.9069 89.8672 88.7685 89.3748 88.6505C87.0723 88.1018 86.38 88.0043 82.5594 88.8864L82.5646 88.8962ZM99.2823 91.8501L99.1952 92.2603L93.7592 91.05C94.7285 86.4807 95.8619 81.0345 96.8208 74.9677L102.37 76.1011C101.447 81.65 100.349 86.8295 99.2823 91.8552L99.2823 91.8501ZM73.4771 30.9565C73.5951 30.1617 74.3387 29.6079 75.1335 29.7257C79.2618 30.336 86.1748 31.3566 86.1748 37.4489C86.1748 38.2541 85.5235 38.9054 84.7183 38.9054C83.9132 38.9054 83.2619 38.2541 83.2619 37.4489C83.2619 34.4437 80.2567 33.4335 74.713 32.6129C73.9182 32.495 73.3644 31.7514 73.4823 30.9565H73.4771ZM20.8256 46.9364C20.5487 47.3775 20.0769 47.6185 19.5897 47.6185C19.323 47.6185 19.0563 47.5467 18.8102 47.3929C12.9331 43.68 9.89206 37.5465 10.687 30.9928C11.4973 24.3055 16.1434 18.5927 22.5282 16.4387C23.2923 16.1823 24.1179 16.5925 24.3743 17.3515C24.6307 18.1156 24.2204 18.9412 23.4614 19.1976C18.1331 20.9977 14.2562 25.7618 13.5793 31.3414C12.9126 36.8338 15.3896 41.7826 20.3641 44.9267C21.0461 45.3575 21.2461 46.2549 20.8205 46.9369L20.8256 46.9364ZM14.2563 51.7519C13.9845 52.2238 13.4973 52.4853 12.9896 52.4853C12.7434 52.4853 12.4922 52.4238 12.2665 52.2904C4.09198 47.5981 -0.461876 38.5213 0.6715 29.1621C1.80485 19.803 8.38956 12.0741 17.4457 9.46945C18.22 9.24894 19.0252 9.69511 19.2508 10.4695C19.4714 11.2438 19.0252 12.049 18.2508 12.2746C10.3224 14.5567 4.55263 21.326 3.56275 29.5162C2.57298 37.7061 6.5576 45.6549 13.7117 49.7628C14.4091 50.1628 14.6501 51.0551 14.2501 51.7526L14.2563 51.7519Z" fill="white"/>
</svg>
