<svg width="94" height="78" viewBox="0 0 94 78" fill="none" xmlns="http://www.w3.org/2000/svg">
<path d="M88.25 41.1448C90.7227 41.1448 92.75 43.1179 92.75 45.5793V67.6838C92.75 70.1452 90.7227 72.1184 88.25 72.1184C85.7773 72.1184 83.75 70.1452 83.75 67.6838V56.7229L74.0293 65.76C64.7444 74.9537 51.3463 78.7887 38.54 75.9211C25.7333 73.0533 15.3038 63.8822 10.9209 51.6243C10.0882 49.2948 11.3245 46.7464 13.6641 45.927C16.0001 45.1092 18.5727 46.3181 19.4043 48.6438C22.7531 58.0093 30.7243 65.0239 40.5225 67.218C50.3197 69.4119 60.5701 66.4783 67.7549 59.3665L67.7715 59.3499L77.8115 50.0129H65.75C63.2774 50.0129 61.2502 48.0406 61.25 45.5793C61.25 43.1179 63.2773 41.1448 65.75 41.1448H88.25ZM19.9756 12.2336C29.2602 3.044 42.6564 -0.788579 55.46 2.07837C68.2667 4.94617 78.6962 14.1174 83.0791 26.3752C83.912 28.7048 82.6757 31.2531 80.3359 32.0725C77.9998 32.8904 75.4273 31.6824 74.5957 29.3567C71.247 19.9911 63.2758 12.9767 53.4775 10.7825C43.6803 8.58859 33.4299 11.5222 26.2451 18.634L26.2373 18.6418L26.2285 18.6497L16.5273 27.6721H28.25C30.7227 27.6721 32.75 29.6453 32.75 32.1067C32.7499 34.568 30.7227 36.5413 28.25 36.5413H5.75C3.27733 36.5413 1.25007 34.568 1.25 32.1067V10.0012C1.25004 7.53985 3.27731 5.56665 5.75 5.56665C8.22269 5.56665 10.25 7.53985 10.25 10.0012V21.2766L19.9756 12.2336Z" fill="white" stroke="#204E2C" stroke-width="1.5"/>
</svg>
