<svg width="100" height="80" viewBox="0 0 100 80" fill="none" xmlns="http://www.w3.org/2000/svg">
<path d="M48.7694 9.49553H51.2294C54.2545 9.49553 56.9914 11.1503 58.4443 13.7538C63.0645 9.99845 67.2581 7.18285 71.0249 5.1699C76.7513 2.10792 81.5519 0.86078 85.414 0.92936C89.5288 1.00429 92.6175 2.54607 94.6812 4.99591C98.1001 9.05611 100 15.8938 100 21.0983C100 26.1503 98.1039 33.1315 94.6812 37.2006C92.6188 39.6505 89.5288 41.1923 85.414 41.2659C81.5507 41.3358 76.7488 40.0873 71.0224 37.0254C68.5395 35.6969 65.8712 34.0205 63.0163 31.9568C66.5532 36.6888 69.4806 41.3726 71.792 46.0259C75.0216 52.5296 77.0638 58.9926 77.9172 65.4734L77.9439 65.6881C77.9947 66.5745 77.3178 67.3378 76.4313 67.3886C71.9952 67.6604 68.2538 68.7043 65.2146 70.5141C62.2162 72.301 59.8667 74.8626 58.1687 78.1925C57.8855 78.7462 57.2924 79.1094 56.632 79.0688C55.7455 79.0142 55.0711 78.2484 55.1257 77.3619C55.6312 69.6492 55.3302 61.9187 54.2113 54.305C53.3249 48.2662 51.9228 42.2984 50 36.4666C48.0772 42.2984 46.6751 48.2662 45.7887 54.305C44.6736 61.8946 44.3714 69.5997 44.8692 77.287C44.939 77.9347 44.6114 78.5875 43.998 78.8986C43.2055 79.3012 42.2339 78.985 41.8313 78.1925C40.1334 74.8626 37.7839 72.301 34.7854 70.5141C31.7463 68.7043 28.0048 67.6604 23.5687 67.3886L23.4608 67.3759C22.5806 67.2654 21.9583 66.4602 22.0688 65.5801C22.9134 59.0637 24.9606 52.5651 28.208 46.0259C30.5398 41.3307 33.4989 36.6063 37.0777 31.8311C34.1466 33.9634 31.4084 35.6868 28.8697 37.0444C23.1674 40.095 18.3909 41.337 14.5504 41.2672C10.4559 41.191 7.38253 39.6543 5.32385 37.2095C1.89992 33.1404 0 26.1491 0 21.0983C0 15.8951 1.90373 9.03833 5.32512 4.98067C7.38634 2.54099 10.4585 1.00556 14.5492 0.92936C18.3909 0.85951 23.1661 2.09903 28.8672 5.14958C32.6505 7.17396 36.8707 10.0061 41.5265 13.797C42.9642 11.1757 45.7468 9.49553 48.7694 9.49553ZM57.3711 29.9489C56.0173 31.4564 54.1059 32.4432 52.0892 32.6553C54.5771 39.5578 56.3449 46.652 57.399 53.8377C58.2753 59.8029 58.6627 65.8392 58.5687 71.8857C60.0114 70.2563 61.6764 68.8796 63.5636 67.7556C66.6409 65.923 70.2883 64.7775 74.4996 64.3228C73.5878 58.731 71.7209 53.1201 68.9065 47.4508C66.0401 41.6825 62.1946 35.862 57.3711 29.9489ZM47.9109 32.6553C45.7861 32.433 44.0666 31.4818 42.6315 29.9451C37.808 35.8582 33.9599 41.6812 31.0935 47.4508C28.2792 53.1201 26.4122 58.731 25.5004 64.3228C29.7117 64.7775 33.3592 65.923 36.4364 67.7556C38.3236 68.8796 39.9886 70.2563 41.4313 71.8857C41.3373 65.8392 41.7247 59.8029 42.601 53.8377C43.6551 46.652 45.4229 39.5578 47.9109 32.6553ZM59.4869 23.6281C73.9421 20.7744 83.669 19.8372 89.6393 20.782L89.7054 20.7935C92.9871 21.3218 95.2464 22.3657 96.6078 23.9177C96.7183 22.9817 96.7742 22.0393 96.7742 21.0983C96.7742 16.845 95.1245 10.5052 92.2251 7.06347C90.7455 5.30706 88.462 4.19835 85.3632 4.14247C82.013 4.08278 77.7458 5.21943 72.5362 8.00454C68.6703 10.0708 64.3104 13.0388 59.459 17.0749C59.478 17.2984 59.4869 17.5232 59.4869 17.7505V23.6281ZM94.7663 30.6842C95.4991 26.972 93.9129 24.7216 89.1821 23.9634L89.1364 23.957C83.6932 23.096 74.6749 23.952 61.2243 26.5606C65.3734 29.8727 69.144 32.3772 72.5337 34.1907C77.7419 36.9758 82.0104 38.1138 85.3632 38.0528C88.462 37.9982 90.7455 36.8895 92.2251 35.1331C93.128 34.0625 94.2456 31.873 94.7663 30.6842ZM38.7059 26.5478C25.2946 23.9507 16.3005 23.0998 10.8661 23.9596C6.09982 24.7152 4.50216 26.9746 5.24257 30.7046C5.76835 31.8996 6.87706 34.0675 7.78004 35.142C9.25578 36.8933 11.5227 37.9969 14.6012 38.0541C17.9312 38.115 22.1742 36.9835 27.3584 34.2098C30.7557 32.3937 34.5377 29.8778 38.7059 26.5478ZM3.39345 23.9278C4.76251 22.3619 7.04217 21.3104 10.3632 20.7846C16.3335 19.8384 26.0579 20.7731 40.5131 23.6281V17.7505C40.5131 17.5448 40.5207 17.3416 40.5359 17.1397C35.6375 13.0566 31.2446 10.0632 27.3559 7.98422C22.173 5.21181 17.9299 4.08151 14.6 4.14247C11.5227 4.19962 9.25705 5.30325 7.78131 7.05458C4.86284 10.5674 3.22581 16.7599 3.22581 21.0983C3.22581 22.0431 3.28042 22.988 3.39345 23.9278ZM51.2294 12.7213H48.7694C46.0033 12.7213 43.7389 14.9807 43.7389 17.7505V24.4435C43.7389 27.2083 46.002 29.4739 48.7694 29.4739H51.2294C53.9954 29.4739 56.2611 27.2121 56.2611 24.4435V17.7505C56.2611 14.9832 53.998 12.7213 51.2294 12.7213Z" fill="white"/>
</svg>
