<svg width="102" height="78" viewBox="0 0 102 78" fill="none" xmlns="http://www.w3.org/2000/svg">
<path d="M50.9922 0.817627C55.4053 0.817627 58.993 4.40453 58.9932 8.81763C58.9932 11.1159 58.0012 13.1661 56.4424 14.6282L65.7832 35.7581L85.6055 21.2649C85.604 21.2614 85.6031 21.2577 85.6016 21.2542C85.5746 21.1913 85.5387 21.11 85.5146 21.0217V21.0208C84.9599 18.9567 85.2436 16.8005 86.3145 14.9553L86.5225 14.6135C87.6025 12.9358 89.2444 11.7467 91.1787 11.2268C93.2421 10.6723 95.3974 10.9556 97.2422 12.0256C99.1014 13.0844 100.418 14.815 100.973 16.8782C101.527 18.9422 101.244 21.0983 100.173 22.9436L100.172 22.9426C98.9997 24.9841 97.0434 26.2586 94.918 26.7151L87.2637 63.2581L87.2607 63.2727L87.2559 63.2864C87.2554 63.2887 87.2546 63.2939 87.2529 63.304C87.2509 63.3161 87.2439 63.3405 87.2363 63.3694L87.2383 63.3704L85.4131 72.0833L85.4102 72.0979L85.4053 72.1116L85.3936 72.1487C85.3392 72.371 85.2571 72.5737 85.1357 72.7659C85.1056 72.8255 85.0665 72.8622 85.0518 72.8752C85.0333 72.8917 85.0362 72.8899 85.043 72.8821C84.9337 73.0319 84.8047 73.1778 84.6406 73.2971L84.6318 73.303L84.6221 73.3088C84.5814 73.3333 84.5418 73.3534 84.5117 73.3684C84.4793 73.3846 84.4563 73.3964 84.4346 73.4094C84.2993 73.4906 84.147 73.5588 83.9902 73.6038C83.9662 73.6153 83.9367 73.6317 83.8975 73.6448L83.8848 73.6487L83.8711 73.6516C72.9413 76.0053 61.9485 77.1828 50.9678 77.1829C39.9745 77.1829 29.0058 76.0054 18.1133 73.6516V73.6506C18.0899 73.6463 18.07 73.6416 18.0557 73.636C18.0327 73.6269 18.0136 73.6159 18.0059 73.6116C17.9829 73.5988 17.9913 73.6038 18 73.6067C17.8254 73.5605 17.6819 73.4881 17.5508 73.4094C17.5326 73.3985 17.5118 73.389 17.4727 73.3704C17.4435 73.3565 17.3971 73.3326 17.3525 73.301V73.303C17.3495 73.3009 17.3468 73.2982 17.3438 73.2961L17.3418 73.2952V73.2942C17.1595 73.1695 17.0276 73.0064 16.916 72.8577L16.9062 72.844C16.901 72.8385 16.8936 72.8316 16.8867 72.8235C16.8773 72.8124 16.8682 72.7964 16.8574 72.7786L16.8564 72.7795C16.7265 72.5774 16.6415 72.363 16.5859 72.1272L16.584 72.1213L14.749 63.3928L14.7305 63.3206C14.7262 63.3012 14.7253 63.2793 14.7227 63.2571L14.7217 63.2581L7.05371 26.7141C4.89236 26.2443 2.95974 24.9357 1.8125 22.969L1.81152 22.967C-0.380895 19.1238 0.933264 14.2204 4.74219 12.0383C6.57408 10.9684 8.72976 10.6721 10.7939 11.2268C12.728 11.7467 14.3692 12.9358 15.4492 14.6028L15.6572 14.9426L15.6582 14.9436C16.7766 16.8913 16.974 19.178 16.3438 21.2581L36.2012 35.7581L45.542 14.6272C43.9837 13.1652 42.9922 11.1155 42.9922 8.81763C42.9923 4.40463 46.5792 0.817788 50.9922 0.817627ZM82.7207 65.4749C72.1654 67.6039 61.5613 68.72 50.9678 68.72C40.3621 68.72 29.7821 67.6038 19.2637 65.4749L20.2148 69.9944C40.6144 74.2307 61.3079 74.2298 81.7695 69.9934L82.7207 65.4749ZM52.9229 16.5481C52.3128 16.7 51.6707 16.8176 50.9922 16.8176C50.3158 16.8176 49.6749 16.7101 49.0605 16.55L38.8584 39.6448L38.8535 39.6555C38.821 39.7206 38.7786 39.7602 38.7539 39.7825C38.7482 39.797 38.7413 39.815 38.7305 39.844C38.7145 39.8866 38.6913 39.9456 38.6504 40.0071L38.6465 40.012C38.5816 40.1046 38.506 40.17 38.4395 40.22C38.4069 40.2444 38.373 40.2674 38.3457 40.2864C38.3196 40.3045 38.2969 40.3195 38.2764 40.3352C38.244 40.3622 38.2255 40.3834 38.1777 40.427C38.1372 40.464 38.0839 40.5096 38.0166 40.5481C37.7268 40.7137 37.3834 40.8313 37.0293 40.8313C36.7576 40.8313 36.4871 40.7735 36.2314 40.6604V40.6614C36.1564 40.6292 36.101 40.5869 36.0615 40.5549C36.0284 40.5281 36.0118 40.5152 35.9961 40.5032C35.9663 40.4971 35.9161 40.4847 35.8662 40.4514L35.8574 40.4456L14.2891 24.6946C13.8267 25.1357 13.3123 25.5351 12.7441 25.8713L12.7412 25.8723C12.2064 26.1795 11.6603 26.4164 11.0957 26.592L18.3643 61.2444C39.9767 65.8547 61.9078 65.8547 83.5947 61.2444L90.8643 26.5764C90.3149 26.407 89.7693 26.1934 89.2422 25.884L89.2412 25.8831C88.6702 25.5451 88.1669 25.133 87.708 24.6819L66.1279 40.4456L66.1191 40.4524L66.1182 40.4514C66.0681 40.4847 66.0179 40.4972 65.9883 40.5032C65.9728 40.5151 65.9566 40.5284 65.9238 40.5549C65.8844 40.5869 65.8289 40.6292 65.7539 40.6614L65.7529 40.6604C65.4974 40.7734 65.2267 40.8313 64.9551 40.8313C64.601 40.8312 64.2585 40.7137 63.9688 40.5481C63.9012 40.5095 63.8472 40.4641 63.8066 40.427C63.7591 40.3836 63.7402 40.3631 63.708 40.3362V40.3352C63.6876 40.3196 63.6646 40.3044 63.6387 40.2864C63.6114 40.2674 63.5783 40.2442 63.5459 40.22C63.4793 40.17 63.4029 40.1048 63.3379 40.012L63.3389 40.011C63.293 39.9493 63.2673 39.8858 63.2529 39.8459C63.2412 39.8133 63.2338 39.7946 63.2285 39.7805L63.2266 39.7786C63.2166 39.7695 63.1973 39.752 63.1787 39.7297C63.1627 39.7105 63.1437 39.6814 63.1279 39.6438L63.127 39.6448L52.9229 16.5481ZM93.2686 14.9309C92.9158 14.9309 92.5632 14.9776 92.2227 15.0715H92.2217C91.1852 15.3543 90.3271 16.0131 89.7852 16.9436C89.2775 17.8155 89.1223 18.8194 89.3467 19.7825L89.3965 19.9739L89.3975 19.9778C89.6803 21.0143 90.3389 21.8724 91.2695 22.4143H91.2686C92.1857 22.9434 93.2681 23.0849 94.3057 22.8137C95.2765 22.5483 96.0906 21.9531 96.6348 21.1135L96.7402 20.9426C97.27 20.0239 97.4226 18.9422 97.1406 17.9084C96.8575 16.8705 96.198 16.0014 95.2705 15.4729L95.2676 15.4709C94.6444 15.1065 93.9628 14.9309 93.2686 14.9309ZM8.74121 14.9426C8.04694 14.9426 7.36546 15.1191 6.74219 15.4836L6.74023 15.4846C4.83661 16.5776 4.1757 19.0376 5.27148 20.97H5.27051C6.3284 22.7893 8.82615 23.5186 10.7412 22.4143C11.3581 22.046 11.8615 21.5627 12.2119 20.9553H12.2129C12.9301 19.7208 12.9302 18.1781 12.2119 16.9299C11.6827 16.013 10.8133 15.3431 9.7793 15.0725C9.43435 14.9895 9.08026 14.9426 8.74121 14.9426ZM50.9922 4.80493C48.7936 4.80509 46.9913 6.60591 46.9795 8.81958C46.9804 11.0307 48.7809 12.8302 50.9922 12.8303C53.2042 12.8303 55.0049 11.0296 55.0049 8.81763C55.0048 6.60573 53.2041 4.80493 50.9922 4.80493Z" fill="white" stroke="white" stroke-width="0.5"/>
</svg>
