<svg width="32" height="32" viewBox="0 0 32 32" fill="none" xmlns="http://www.w3.org/2000/svg">
<path d="M16 0.5C24.5604 0.5 31.5 7.43959 31.5 16C31.5 24.5604 24.5604 31.5 16 31.5C7.43959 31.5 0.5 24.5604 0.5 16C0.5 7.43959 7.43959 0.5 16 0.5Z" stroke="#1C120E"/>
<path d="M19.9998 9.33325H17.9998C17.1158 9.33325 16.2679 9.68444 15.6428 10.3096C15.0177 10.9347 14.6665 11.7825 14.6665 12.6666V14.6666H12.6665V17.3333H14.6665V22.6666H17.3332V17.3333H19.3332L19.9998 14.6666H17.3332V12.6666C17.3332 12.4898 17.4034 12.3202 17.5284 12.1952C17.6535 12.0702 17.823 11.9999 17.9998 11.9999H19.9998V9.33325Z" stroke="#1C120E" stroke-linecap="round" stroke-linejoin="round"/>
</svg>
