<svg width="106" height="100" viewBox="0 0 106 100" fill="none" xmlns="http://www.w3.org/2000/svg">
<path d="M103.989 24.001L102.069 22.0813C101.053 21.0644 99.3114 20.5335 97.8481 20.7817C96.7122 20.9702 95.5415 20.6031 94.728 19.7896C93.9145 18.976 93.5424 17.8103 93.7359 16.6744C93.9889 15.2011 93.4482 13.4601 92.4314 12.4481L87.9917 8.00846C82.8278 2.84459 75.9725 0.00220452 68.7009 0.00220452C68.6612 -0.00275565 68.6215 0.00220452 68.5768 0.00220452C61.2601 0.00220452 54.3897 2.8545 49.2314 8.03817C48.1599 9.1146 47.8821 10.692 48.5171 12.0661C49.157 13.45 50.5658 14.2587 52.0787 14.1297C56.9748 13.713 61.7913 15.4789 65.264 18.9513L66.7322 20.4196L65.8492 21.3075C65.0308 22.121 64.5694 23.1876 64.4851 24.3284L39.2753 49.5573C37.688 49.1406 35.932 49.5325 34.6968 50.7726L2.70705 82.7623C-0.0807346 85.5501 -0.0807346 90.079 2.70705 92.8618L7.75688 97.9117C9.15083 99.3056 10.9763 100 12.8067 100C14.6371 100 16.4675 99.3055 17.8565 97.9117L49.8463 65.922C50.7491 65.0241 51.2452 63.8287 51.2452 62.5538C51.2452 62.1471 51.1757 61.7552 51.0765 61.3732L76.2952 36.1342C77.3964 36.0549 78.4728 35.6134 79.3161 34.7751L82.6545 31.3225C82.7587 31.4019 82.8579 31.4862 82.9472 31.5755C83.7607 32.389 84.1327 33.5547 83.9343 34.6956C83.6813 36.1638 84.2171 37.9 85.2339 38.912L86.9454 40.6234C88.0019 41.68 89.3165 42.2158 90.6012 42.2158C91.7917 42.2158 92.9625 41.7544 93.89 40.8318L103.99 30.7323C104.892 29.8295 105.383 28.639 105.383 27.3642C105.383 26.0943 104.887 24.8939 103.99 23.9961L103.989 24.001ZM66.6913 28.8871L71.7411 33.9369L48.1784 57.5187L43.1286 52.4689L66.6913 28.8871ZM14.4926 94.5491C13.565 95.4767 12.052 95.4767 11.1245 94.5491L6.07468 89.4993C5.14707 88.5717 5.14707 87.0587 6.07468 86.1312L38.0644 54.1415L46.4823 62.5594L14.4926 94.5491ZM90.5919 37.4487C90.567 37.4437 90.4579 37.409 90.3091 37.2651L88.6275 35.5042C89.0789 32.8404 88.2158 30.1171 86.306 28.2073C86.058 27.9642 85.805 27.741 85.5272 27.5277C84.7038 26.9126 83.7265 26.6051 82.7444 26.6051C81.5142 26.6051 80.2791 27.0813 79.3514 28.0089L75.9534 31.4069L69.222 24.6705L70.11 23.7826C71.9651 21.9274 71.9651 18.9065 70.11 17.0462L68.6417 15.578C64.9461 11.8823 60.0848 9.69979 54.9409 9.35261C58.8448 6.37129 63.592 4.75917 68.5973 4.75917H68.7014C74.7136 4.75917 80.3735 7.10554 84.6347 11.3665L89.0496 15.8707C88.5982 18.5296 89.4663 21.2479 91.3661 23.1527C93.266 25.0526 95.9893 25.9207 98.7076 25.4445L100.622 27.3592L90.5922 37.4389L90.5919 37.4487Z" fill="white"/>
</svg>
