<svg width="94" height="102" viewBox="0 0 94 102" fill="none" xmlns="http://www.w3.org/2000/svg">
<path d="M73.8652 0.75C74.9242 0.75 75.7822 1.60805 75.7822 2.66699C75.7824 10.4482 82.9126 16.826 91.7363 16.8262C92.7951 16.8262 93.6531 17.6834 93.6533 18.7422V46.0439C93.6533 67.0293 81.3427 86.1015 61.5459 95.8203C57.2149 97.9482 52.5209 99.7409 47.5908 101.157L47.5576 101.167H47.5518C47.5474 101.168 47.5451 101.17 47.5439 101.17L47.5322 101.175L47.5205 101.178C47.3524 101.226 47.1789 101.25 47.0059 101.25H46.9893C46.8198 101.25 46.647 101.226 46.4766 101.179L46.4639 101.175L46.4395 101.167H46.4365L46.4033 101.157C41.4754 99.7415 36.7841 97.9455 32.4551 95.8232V95.8242C12.657 86.1099 0.34668 67.0375 0.34668 46.0479V18.7422C0.346871 17.6834 1.20485 16.8262 2.26367 16.8262C11.0911 16.826 18.2176 10.4439 18.2178 2.66699C18.2178 1.60805 19.0758 0.75 20.1348 0.75H73.8652ZM21.9355 4.58301C20.9472 13.0488 13.4843 19.7531 4.17871 20.5713V46.0439C4.17875 65.5461 15.6532 83.3051 34.1406 92.3789C38.1267 94.337 42.4557 95.9956 47.001 97.3301C51.5421 95.9955 55.8717 94.3371 59.8623 92.3789C78.3507 83.3051 89.8242 65.5471 89.8242 46.0439V20.5713C80.5224 19.7529 73.0561 13.0488 72.0674 4.58301H21.9355Z" fill="white" stroke="white" stroke-width="0.5"/>
<path d="M47.0013 20.7507C54.5897 20.7507 60.7601 26.9253 60.7601 34.5095V39.5476H61.015C64.0447 39.5479 66.5111 42.014 66.5111 45.0437V65.0193C66.5111 68.0491 64.0446 70.5151 61.015 70.5154H32.9886C29.9587 70.5154 27.4926 68.0491 27.4926 65.0193V45.0437C27.4926 42.0138 29.9588 39.5476 32.9886 39.5476H33.2426V34.5095C33.2426 26.9213 39.4132 20.7509 47.0013 20.7507ZM32.9877 43.3767C32.0718 43.3769 31.3257 44.123 31.3256 45.0388V65.0154C31.3256 65.9314 32.0718 66.6773 32.9877 66.6775H61.0101C61.9263 66.6775 62.6732 65.9315 62.6732 65.0154V45.0388C62.6731 44.1228 61.9262 43.3767 61.0101 43.3767H32.9877ZM47.0013 24.5837C41.5923 24.5837 37.1854 28.9328 37.0804 34.3132V39.5476H56.9261V34.5095C56.9261 29.0349 52.4718 24.5839 47.0013 24.5837Z" fill="white" stroke="white" stroke-width="0.5"/>
<path d="M47.0022 47.9855C49.6526 47.9857 51.8059 50.1396 51.8059 52.7902C51.8058 54.7529 50.6127 56.437 48.9182 57.1779V59.5236C48.9181 60.5823 48.0609 61.4404 47.0022 61.4406C45.9433 61.4406 45.0853 60.5825 45.0852 59.5236V57.1769C43.3911 56.4362 42.1977 54.757 42.1975 52.7902C42.1975 50.1395 44.3558 47.9855 47.0022 47.9855ZM47.0022 51.8185C46.4654 51.8185 46.0308 52.2525 46.0305 52.7892C46.0305 53.3262 46.4653 53.7609 47.0022 53.7609C47.5384 53.7607 47.9729 53.3225 47.9729 52.7892C47.9726 52.2563 47.5383 51.8187 47.0022 51.8185Z" fill="white" stroke="white" stroke-width="0.5"/>
</svg>
