<svg width="66" height="94" viewBox="0 0 66 94" fill="none" xmlns="http://www.w3.org/2000/svg">
<path fill-rule="evenodd" clip-rule="evenodd" d="M42.6245 37.617L32.9994 31.2275L23.4397 37.5721V37.5762C23.2683 37.7027 23.0724 37.7884 22.8643 37.8292L11.9178 39.9713L9.77567 50.9147C9.74303 51.0983 9.66959 51.2738 9.56758 51.4288L3.18211 61.0539L9.52674 70.6136C9.65322 70.785 9.7389 70.9809 9.77971 71.1889L11.9218 82.1324L22.8684 84.2745C23.052 84.3112 23.2234 84.3806 23.3784 84.4867L32.9994 90.8721L42.5592 84.5275C42.7305 84.401 42.9264 84.3153 43.1345 84.2745L54.0779 82.1324L56.22 71.189L56.2241 71.1849C56.2567 71.0054 56.3302 70.8299 56.4322 70.6749L62.8176 61.0498L56.4771 51.4941C56.3506 51.3228 56.2608 51.1269 56.2241 50.9188L54.082 39.9723L43.1354 37.8302C42.9559 37.7934 42.7805 37.7241 42.6254 37.6221L42.6245 37.617ZM32.3139 27.588L31.8732 28.5672L22.0441 35.0955L18.1802 35.8503L9.56698 14.3311C8.66526 12.1645 9.35073 9.66333 11.2235 8.25573L17.8538 3.14333C18.017 3.01276 18.2088 2.91892 18.4087 2.86996C18.6168 2.82915 18.833 2.82915 19.037 2.87811C19.0778 2.89036 19.1227 2.89852 19.1635 2.91076L19.2002 2.923C19.343 2.97196 19.4818 3.04132 19.6042 3.13516C19.7674 3.26573 19.902 3.42893 19.9918 3.6207L27.0138 17.2768V17.2727C27.0423 17.338 27.0709 17.3992 27.1076 17.4563L32.3139 27.5832L32.3139 27.588ZM35.2067 28.0735L40.0008 17.4121V17.4162C40.0416 17.3468 40.0743 17.2734 40.0988 17.1958L46.1251 3.8009C46.2108 3.60097 46.3414 3.42961 46.5046 3.2868C47.0187 2.85022 47.7694 2.83798 48.2957 3.25824L54.7709 8.25648C56.6478 9.66418 57.3292 12.1653 56.4315 14.3318L47.8183 35.851L43.9544 35.0962L34.7863 29.0127L35.1576 28.1885C35.1739 28.1518 35.1902 28.1151 35.2066 28.0824L35.2067 28.0735ZM30.6532 18.1506L33.8031 24.279L36.5572 18.1506H30.6532ZM22.8683 2.99248L29.1926 15.2938H37.8424L43.3547 3.03739L22.8683 2.99248ZM15.3486 36.4004L6.93121 15.3878C5.56435 12.0421 6.61296 8.1945 9.48945 6.00749L16.1157 0.89508C17.1112 0.111689 18.4128 -0.177956 19.6491 0.107605L19.8164 0.148406L46.5582 0.205529H46.5541C47.1294 0.0831216 47.7211 0.0831214 48.2964 0.201448C48.9288 0.336097 49.5204 0.613543 50.0305 1.00932L56.5057 6.00756C59.3822 8.19458 60.4308 12.0421 59.0639 15.3879L50.6506 36.4005L55.559 37.3634L55.5631 37.3593C56.1384 37.4736 56.5872 37.9306 56.6892 38.51L58.9578 50.0937L65.7146 60.2656C66.0329 60.7511 66.0288 61.3835 65.6942 61.8609L58.9619 72.0082L56.6893 83.6159C56.575 84.1953 56.1221 84.6441 55.5386 84.7461L43.9549 87.0147L33.783 93.7633C33.2975 94.0856 32.6692 94.0774 32.1878 93.7469L22.0404 87.0147L10.4369 84.742C9.86156 84.6278 9.41274 84.1708 9.31076 83.5914L7.03809 72.0076L0.285477 61.8317C-0.0327781 61.3462 -0.0286938 60.7138 0.305878 60.2364L7.03813 50.0891L9.31079 38.4855C9.42505 37.9061 9.87794 37.4573 10.4614 37.3554L15.3454 36.4006L15.3486 36.4004ZM35.1297 56.7477C35.3337 57.2496 35.8029 57.5882 36.3416 57.629V57.6331L41.9437 58.0493L37.6513 61.6806C37.2188 62.0479 37.0434 62.6313 37.2066 63.174L38.5367 68.5639L33.7507 65.5977V65.6018C33.2855 65.3121 32.6939 65.3203 32.2329 65.6181L27.4713 68.564L28.8137 63.0965C28.9402 62.5743 28.7648 62.0235 28.3527 61.6766L24.0603 58.0452L29.6624 57.629C30.2459 57.5882 30.7395 57.1925 30.915 56.6376L33.004 51.5374L35.1339 56.7478L35.1297 56.7477ZM34.3137 47.2573L37.4228 54.8586L45.6199 55.4624L45.6158 55.4665C46.2034 55.5073 46.7052 55.9072 46.8765 56.4702C47.0479 57.0333 46.8562 57.6412 46.3951 58.0044L40.1606 63.2801L42.119 71.2649H42.1149C42.2537 71.8321 42.0293 72.4278 41.5519 72.7624C41.0745 73.0969 40.4421 73.1051 39.9566 72.7868L32.9999 68.4782L26.0106 72.8072C25.521 73.1091 24.8967 73.0846 24.4316 72.746C23.9664 72.4114 23.7502 71.8239 23.8848 71.2649L25.8433 63.28L19.564 57.9677C19.1192 57.5964 18.9438 56.9885 19.1274 56.4377C19.3069 55.8869 19.8047 55.4992 20.384 55.4625L28.5811 54.8587L31.6902 47.2574L31.6862 47.2533C31.9024 46.7188 32.4247 46.3679 33 46.3679C33.5753 46.3679 34.0975 46.7188 34.3138 47.2533L34.3137 47.2573ZM44.5793 49.4728C48.178 53.0715 49.8999 58.1391 49.2348 63.1905C48.5697 68.2376 45.5993 72.6892 41.1887 75.2349C36.7781 77.7806 31.4372 78.1318 26.7326 76.1815C22.0281 74.2352 18.4988 70.2081 17.1809 65.2913C15.8631 60.3745 16.9076 55.1235 20.0085 51.0837C23.1052 47.0444 27.9076 44.6738 33.0002 44.6738C37.3456 44.6697 41.511 46.3963 44.5793 49.4728ZM32.9998 41.8266C38.9732 41.8266 44.6075 44.6052 48.2477 49.3463C51.8832 54.0875 53.1112 60.249 51.5649 66.0221C50.0144 71.7914 45.8731 76.5164 40.353 78.8008C34.8325 81.0897 28.5656 80.6777 23.3921 77.691C18.2144 74.7043 14.7258 69.4817 13.9465 63.5575C13.1631 57.6331 15.1828 51.6845 19.4058 47.4573C23.0085 43.8464 27.9006 41.8186 33.0012 41.8267L32.9998 41.8266Z" fill="white"/>
</svg>
