<svg width="51" height="42" viewBox="0 0 51 42" fill="none" xmlns="http://www.w3.org/2000/svg">
<path d="M36.123 0C37.6434 0 39.2224 0.351463 40.8598 1.05439C42.6142 1.75732 44.1931 2.87029 45.5967 4.3933C47.0002 5.79916 48.1113 7.61506 48.93 9.841C49.8657 12.0669 50.3335 14.7029 50.3335 17.749C50.3335 21.0293 49.6902 24.0167 48.4037 26.7113C47.1171 29.4059 45.4212 31.8075 43.316 33.9163C41.2107 35.9079 38.8715 37.6067 36.2984 39.0125C33.8423 40.3012 31.3861 41.2971 28.93 42L26.8247 37.0795C30.5674 35.3222 33.7253 33.272 36.2984 30.9289C38.8715 28.5858 40.1581 25.8326 40.1581 22.6695C40.1581 19.7406 39.1054 17.6904 37.0002 16.5188C34.8949 15.3473 32.3803 14.41 29.4563 13.7071C28.8715 13.59 28.2867 13.0628 27.7019 12.1255C27.1171 11.1883 26.8247 9.95815 26.8247 8.43514C26.8247 6.32635 27.585 4.3933 29.1054 2.63598C30.7429 0.87866 33.082 0 36.123 0ZM9.63174 0C11.1522 0 12.7312 0.351463 14.3686 1.05439C16.123 1.75732 17.7019 2.87029 19.1054 4.3933C20.5089 5.79916 21.6785 7.61506 22.6142 9.841C23.5499 12.0669 24.0177 14.7029 24.0177 17.749C24.0177 21.0293 23.316 24.0167 21.9124 26.7113C20.6259 29.4059 18.93 31.8075 16.8247 33.9163C14.8364 35.9079 12.5557 37.6067 9.98262 39.0125C7.40952 40.3012 4.8949 41.2971 2.43876 42L0.333496 37.0795C4.07619 35.3222 7.23408 33.272 9.80718 30.9289C12.3803 28.5858 13.6668 25.8326 13.6668 22.6695C13.6668 19.7406 12.6142 17.6904 10.5089 16.5188C8.52063 15.3473 6.00601 14.41 2.96508 13.7071C2.49724 13.59 1.91244 13.0628 1.21069 12.1255C0.625894 11.1883 0.333496 9.95815 0.333496 8.43514C0.333496 6.32635 1.09373 4.3933 2.6142 2.63598C4.25163 0.87866 6.59081 0 9.63174 0Z" fill="#785C4A"/>
</svg>
