<svg width="106" height="100" viewBox="0 0 106 100" fill="none" xmlns="http://www.w3.org/2000/svg">
<path fill-rule="evenodd" clip-rule="evenodd" d="M88.8234 46.3777C82.0027 46.3777 77.0394 41.9286 76.9873 35.7855H100.66C100.607 41.9286 95.6442 46.3777 88.8234 46.3777ZM88.8234 9.86707L95.8841 31.0515L81.7612 31.0468L88.8234 9.86707ZM51.5412 25.3901C48.0803 25.3901 45.2618 22.5799 45.2618 19.1258C45.2618 15.6733 48.0803 12.8615 51.5412 12.8615C55.0021 12.8615 57.8191 15.6733 57.8191 19.1258C57.8191 22.5799 55.0021 25.3901 51.5412 25.3901ZM64.8513 95.277H38.0228V90.6263C42.4006 89.4723 46.8762 88.893 51.3534 88.8867C51.3818 88.8867 51.4071 88.8946 51.4371 88.8946C51.4639 88.8946 51.4907 88.8867 51.5175 88.8867C55.9948 88.8946 60.4704 89.4723 64.8513 90.6263V95.277ZM10.1148 62.5038L17.1754 41.3241L24.2361 62.5085L10.1148 62.5038ZM17.177 77.8237C10.3547 77.8237 5.39297 73.3746 5.34089 67.2315H29.0131C28.9595 73.3746 23.9978 77.8237 17.177 77.8237ZM103.027 31.0625H100.879L91.3295 2.41411C91.339 2.05516 91.2775 1.68834 91.1117 1.34198C90.602 0.263552 89.3805 -0.238663 88.2679 0.109267C87.9981 0.173815 87.744 0.276148 87.5167 0.427285L60.7276 13.0803C58.7534 10.1064 55.3761 8.13844 51.5412 8.13844C45.4685 8.13844 40.5273 13.0677 40.5273 19.1258C40.5273 19.6469 40.5778 20.1539 40.6473 20.6545L16.5189 31.5395C15.4442 31.7898 14.723 32.7329 14.6977 33.783L5.12311 62.5085H2.97367C1.66538 62.5085 0.606445 63.5649 0.606445 64.87V67.1339C0.606445 75.9204 7.72863 82.5468 17.177 82.5468C26.6238 82.5468 33.7476 75.9204 33.7476 67.1339V64.87C33.7476 63.5649 32.6871 62.5085 31.3804 62.5085H29.2262L20.0934 35.1101L42.3043 25.0894C43.8367 27.4446 46.2465 29.1749 49.0698 29.8235V84.2471C44.3228 84.4439 39.5915 85.1964 34.9754 86.5787C33.9733 86.8778 33.2883 87.7972 33.2883 88.8395V97.6385C33.2883 98.9436 34.3473 100 35.6556 100H67.2186C68.5253 100 69.5858 98.9436 69.5858 97.6385V88.8395C69.5858 87.7972 68.8993 86.8778 67.8972 86.5787C63.2795 85.1964 58.5482 84.4439 53.8043 84.2471V29.8786C58.7944 28.8332 62.5536 24.4109 62.5536 19.1258C62.5536 18.5748 62.4999 18.0364 62.421 17.5074L84.8118 6.93091L76.7664 31.0625H74.6201C73.3134 31.0625 72.2529 32.1205 72.2529 33.424V35.6879C72.2529 44.4744 79.3766 51.1008 88.8234 51.1008C98.2702 51.1008 105.394 44.4744 105.394 35.6879V33.424C105.394 32.1205 104.333 31.0625 103.027 31.0625Z" fill="white"/>
</svg>
