<svg width="82" height="100" viewBox="0 0 82 100" fill="none" xmlns="http://www.w3.org/2000/svg">
<path d="M62.4985 25.0102C62.4985 25.6868 62.7673 26.3356 63.2457 26.814C63.7241 27.2924 64.373 27.5612 65.0496 27.5612H70.7638C71.4404 27.5612 72.0893 27.2924 72.5677 26.814C73.0461 26.3356 73.3149 25.6868 73.3149 25.0102C73.3149 24.3336 73.0461 23.6848 72.5677 23.2063C72.0893 22.7279 71.4404 22.4592 70.7638 22.4592H65.0496C64.373 22.4592 63.7241 22.7279 63.2457 23.2063C62.7673 23.6848 62.4985 24.3336 62.4985 25.0102Z" fill="white"/>
<path d="M23.2947 25.0102C23.2947 25.6868 23.5634 26.3356 24.0419 26.814C24.5203 27.2924 25.1691 27.5612 25.8457 27.5612H31.56C32.2366 27.5612 32.8854 27.2924 33.3638 26.814C33.8422 26.3356 34.111 25.6868 34.111 25.0102C34.111 24.3336 33.8422 23.6848 33.3638 23.2063C32.8854 22.7279 32.2366 22.4592 31.56 22.4592H25.8457C25.1691 22.4592 24.5203 22.7279 24.0419 23.2063C23.5634 23.6848 23.2947 24.3336 23.2947 25.0102Z" fill="white"/>
<path d="M50.8557 8.2653V2.55102C50.8557 1.87445 50.5869 1.22559 50.1085 0.747176C49.6301 0.268767 48.9813 0 48.3047 0C47.6281 0 46.9792 0.268767 46.5008 0.747176C46.0224 1.22559 45.7537 1.87445 45.7537 2.55102V8.2653C45.7537 8.94188 46.0224 9.59074 46.5008 10.0691C46.9792 10.5476 47.6281 10.8163 48.3047 10.8163C48.9813 10.8163 49.6301 10.5476 50.1085 10.0691C50.5869 9.59074 50.8557 8.94188 50.8557 8.2653Z" fill="white"/>
<path d="M62.4167 7.32661L58.335 11.4082C57.856 11.8873 57.5869 12.5369 57.5869 13.2144C57.5869 13.8918 57.856 14.5415 58.335 15.0205C58.814 15.4995 59.4637 15.7686 60.1411 15.7686C60.8186 15.7686 61.4683 15.4995 61.9473 15.0205L66.0289 10.9389C66.5079 10.4598 66.777 9.81016 66.777 9.13273C66.777 8.45531 66.5079 7.80562 66.0289 7.32661C65.5499 6.8476 64.9002 6.57849 64.2228 6.57849C63.5454 6.57849 62.8957 6.8476 62.4167 7.32661Z" fill="white"/>
<path d="M36.4679 15.7245C36.9731 15.7254 37.4672 15.5763 37.8876 15.296C38.3079 15.0158 38.6356 14.617 38.8291 14.1503C39.0225 13.6836 39.073 13.17 38.9742 12.6745C38.8754 12.1791 38.6317 11.7241 38.274 11.3673L34.1924 7.28572C33.9552 7.04853 33.6736 6.86039 33.3637 6.73203C33.0538 6.60366 32.7217 6.5376 32.3863 6.5376C32.0508 6.5376 31.7187 6.60366 31.4088 6.73203C31.0989 6.86039 30.8173 7.04853 30.5802 7.28572C30.343 7.5229 30.1548 7.80448 30.0265 8.11437C29.8981 8.42427 29.832 8.75641 29.832 9.09184C29.832 9.42727 29.8981 9.75941 30.0265 10.0693C30.1548 10.3792 30.343 10.6608 30.5802 10.898L34.6618 14.9796C34.8988 15.2168 35.1804 15.4047 35.4904 15.5326C35.8004 15.6604 36.1326 15.7256 36.4679 15.7245Z" fill="white"/>
<path d="M5.80468 45.1429C4.45153 45.1429 3.15381 45.6804 2.19699 46.6372C1.24017 47.5941 0.702637 48.8918 0.702637 50.2449V94.898C0.702637 96.2511 1.24017 97.5489 2.19699 98.5057C3.15381 99.4625 4.45153 100 5.80468 100H20.5802C21.8737 100.003 23.1201 99.515 24.0673 98.6341C25.0144 97.7532 25.5917 96.5454 25.6822 95.2551L28.8455 97.1531C31.8568 98.9608 35.3026 99.9166 38.8149 99.9184H60.3761C62.984 99.9463 65.5692 99.432 67.9679 98.4082C74.8557 95.347 75.9373 89.9694 75.4271 86.398C77.1953 84.913 78.4626 82.9189 79.056 80.6874C79.6495 78.456 79.5403 76.0958 78.7434 73.9286C80.4509 71.8628 81.3566 69.2508 81.2944 66.5714C81.1829 64.4726 80.4553 62.4531 79.2026 60.7653C79.9851 58.9632 80.1805 56.9605 79.7611 55.0411C79.3417 53.1217 78.3288 51.383 76.8659 50.0715C76.655 49.8742 76.4339 49.6871 76.2026 49.5102C75.0421 48.6472 73.7033 48.0546 72.2842 47.7755H72.172C65.4067 46.3368 60.8557 46.2449 54.1618 46.2449C53.9067 44.7041 53.9169 41.4694 55.9373 35.3776C57.8047 29.7347 57.6414 25.0715 55.4475 21.5102C54.5427 20.0864 53.3362 18.8786 51.9132 17.9723C50.4903 17.066 48.8857 16.4833 47.2128 16.2653H46.8965C45.7251 16.245 44.5788 16.6063 43.6308 17.2948C42.6828 17.9832 41.9845 18.9614 41.6414 20.0817C41.6053 20.202 41.578 20.3247 41.5598 20.449L40.7945 25.9592C40.5639 27.6144 40.0822 29.2248 39.3659 30.7347L31.9271 46.3572C31.3706 47.6454 30.5129 48.7812 29.4262 49.669C28.3395 50.5568 27.0555 51.1708 25.6822 51.4592V50.2449C25.6822 48.8918 25.1447 47.5941 24.1879 46.6372C23.2311 45.6804 21.9333 45.1429 20.5802 45.1429H5.80468ZM5.80468 94.898V50.2449H20.5802V94.898H5.80468ZM26.2128 56.5919C28.4739 56.1953 30.6005 55.2411 32.4 53.8158C34.1995 52.3904 35.6152 50.5388 36.519 48.4286L43.8965 32.847C44.8345 30.8659 45.4643 28.753 45.7639 26.5817L46.5496 21.4286C46.5863 21.3929 46.6322 21.3682 46.6822 21.3572C47.5722 21.4982 48.4231 21.8233 49.1803 22.3118C49.9376 22.8002 50.5847 23.4412 51.0802 24.1939C52.4271 26.3776 52.4271 29.6939 51.0802 33.7755C49.1006 39.7347 48.4883 44.4388 49.2434 47.7653C49.4761 48.7908 50.0521 49.706 50.8761 50.3593C51.7001 51.0125 52.7225 51.3646 53.7741 51.3572C60.5189 51.3572 64.6822 51.4184 71.121 52.7755H71.223C71.9032 52.8986 72.5478 53.1704 73.1108 53.5715L73.4373 53.847C76.0496 56.2041 74.3965 59.2245 74.0496 59.7857C73.7233 60.2961 73.5893 60.9059 73.6716 61.5061C73.7539 62.1062 74.047 62.6575 74.4985 63.0612C75.4919 64.0666 76.102 65.3879 76.223 66.7959C76.1932 67.7359 75.9746 68.6603 75.5802 69.514C75.1857 70.3677 74.6236 71.1334 73.9271 71.7653C73.5451 72.1692 73.3055 72.6868 73.2447 73.2394C73.1839 73.792 73.3053 74.3493 73.5904 74.8266C73.7026 75.0204 76.3251 79.5817 71.1312 83.398C70.696 83.7254 70.3751 84.1816 70.2139 84.7018C70.0527 85.222 70.0595 85.7798 70.2332 86.2959C70.5087 87.1123 71.5904 91.2959 65.9883 93.7551C64.2124 94.4974 62.3005 94.8589 60.3761 94.8163H38.7741C36.1889 94.8124 33.6532 94.1071 31.4373 92.7755L25.6822 89.3265V56.6735L26.2128 56.5919Z" fill="white"/>
<path d="M13.1923 90.0715C14.9112 90.0715 16.3046 88.6781 16.3046 86.9592C16.3046 85.2404 14.9112 83.847 13.1923 83.847C11.4735 83.847 10.0801 85.2404 10.0801 86.9592C10.0801 88.6781 11.4735 90.0715 13.1923 90.0715Z" fill="white"/>
</svg>
