<svg width="92" height="90" viewBox="0 0 92 90" fill="none" xmlns="http://www.w3.org/2000/svg">
<path fill-rule="evenodd" clip-rule="evenodd" d="M63.1141 19.4671L47.6777 34.8996L39.7352 26.961C42.1806 19.9148 40.5928 11.7757 34.9682 6.15062C29.332 0.51442 21.1695 -1.06948 14.1114 1.39903C13.6092 1.57674 13.2306 1.99394 13.1147 2.51545C12.9949 3.03311 13.1533 3.57392 13.528 3.94863L25.8088 16.2333L23.8734 23.465L16.6417 25.4042L4.35706 13.1195C3.98234 12.7448 3.43765 12.5864 2.92002 12.7062C2.40237 12.8259 1.9813 13.2006 1.80746 13.7028C-0.661049 20.7606 0.922816 28.9237 6.55905 34.5597C12.5352 40.5398 21.3547 41.9575 28.6827 38.8207C28.6827 38.8207 33.8979 44.0358 36.2196 46.3575L30.6761 51.9049C29.8301 51.1478 28.729 50.7267 27.5895 50.7267C26.361 50.7267 25.1789 51.2173 24.3136 52.0865C19.365 57.0312 7.35811 69.038 2.41339 73.9867C1.54419 74.852 1.05358 76.0341 1.05358 77.2626C1.05358 78.491 1.54419 79.6731 2.41339 80.5385C4.66551 82.7906 8.15392 86.279 10.406 88.5311C11.2714 89.4003 12.4535 89.8909 13.6819 89.8909C14.9104 89.8909 16.0925 89.4003 16.9578 88.5311C21.9064 83.5864 33.9133 71.5796 38.858 66.6309C39.7272 65.7656 40.2178 64.5835 40.2178 63.355C40.2178 62.2155 39.7967 61.1145 39.0396 60.2684L44.587 54.7249L77.4892 87.6271C80.653 90.791 85.7832 90.791 88.9471 87.6271C92.1111 84.4633 92.111 79.3331 88.9471 76.1692L56.0449 43.267L70.8563 28.4555L73.7614 31.3567C74.6267 32.2259 75.8088 32.7165 77.0372 32.7165C78.2657 32.7165 79.4478 32.2259 80.3131 31.3567C82.5653 29.1046 86.0537 25.6162 88.3058 23.364C89.175 22.4987 89.6656 21.3166 89.6656 20.0882C89.6656 18.8597 89.175 17.6776 88.3058 16.8123L75.5692 4.07169C72.9616 1.46413 69.4231 0 65.7338 0H52.3138C51.9043 0 51.5103 0.162247 51.2205 0.451978C50.9308 0.74171 50.7685 1.13574 50.7685 1.54526L50.7724 7.72617C50.7724 8.57991 51.4639 9.2714 52.3176 9.2714C55.184 9.2714 57.9346 10.411 59.9627 12.4391C61.844 14.3204 62.9604 16.8237 63.1149 19.466L63.1141 19.4671ZM51.4089 47.9032L84.3112 80.8054C84.9138 81.4081 84.9138 82.3893 84.3112 82.9919C83.7085 83.5945 82.7273 83.5945 82.1247 82.9919L49.2225 50.0897L46.7733 52.5389L79.6755 85.4411C81.6341 87.3997 84.8018 87.3997 86.7604 85.4411C88.719 83.4825 88.719 80.3148 86.7604 78.3562L53.8582 45.454L51.4089 47.9032ZM7.50174 73.2677L17.677 83.443L14.7758 86.348C14.4861 86.6338 14.0921 86.8 13.6826 86.8C13.273 86.8 12.879 86.6338 12.5893 86.348L4.59661 78.3553C4.31075 78.0656 4.14463 77.6716 4.14463 77.262C4.14463 76.8525 4.31075 76.4585 4.59661 76.1688L7.50174 73.2677ZM36.6756 62.2617L28.683 54.2691C28.3932 53.9832 27.9992 53.8171 27.5897 53.8171C27.1802 53.8171 26.7862 53.9832 26.4964 54.2691L9.6883 71.0811L19.8636 81.2564L36.6756 64.4483C36.9615 64.1585 37.1276 63.7645 37.1276 63.355C37.1276 62.9455 36.9615 62.5515 36.6756 62.2617ZM48.7704 38.1789L32.8662 54.0831L36.8607 58.0776L68.6691 26.2691L64.6747 22.2747L48.7704 38.1789ZM43.0415 39.5349L45.4907 37.0856L36.8451 28.4401C36.4086 27.9997 36.2734 27.3429 36.5091 26.7674C39.0007 20.6251 37.7607 13.3157 32.7812 8.33639C28.6593 4.21061 22.9382 2.65381 17.6029 3.65432L28.6247 14.6791C29.0149 15.0654 29.1694 15.6371 29.0264 16.1702L26.6236 25.1248C26.4845 25.6579 26.0673 26.0751 25.5342 26.2181L16.5796 28.6171C16.0465 28.76 15.4747 28.6094 15.0846 28.2192L4.06279 17.1944C3.05842 22.5293 4.61907 28.2508 8.74485 32.3728C14.0373 37.6691 21.968 38.7391 28.327 35.5791C28.9219 35.2855 29.6365 35.4014 30.1079 35.8727L38.4057 44.1706L40.8549 41.7214L34.2221 35.0885C33.6194 34.4859 33.6194 33.5046 34.2221 32.902C34.8247 32.2995 35.806 32.2994 36.4085 32.902L43.0415 39.5349ZM83.2174 16.0939L86.1224 18.995C86.4083 19.2848 86.5744 19.6788 86.5744 20.0883C86.5744 20.4978 86.4083 20.8918 86.1224 21.1816L78.1298 29.1743C77.84 29.4601 77.446 29.6262 77.0365 29.6262C76.627 29.6262 76.233 29.4601 75.9432 29.1743L73.042 26.2692L83.2174 16.0939ZM81.0309 13.9074L70.8557 24.0827L66.2046 19.4316C66.0423 15.9818 64.6014 12.7059 62.1483 10.253C59.9077 8.01241 56.9795 6.61394 53.8582 6.26633C53.862 6.26633 53.8582 3.09092 53.8582 3.09092H65.7334C68.6036 3.09092 71.3542 4.23048 73.3823 6.25861L81.0309 13.9074Z" fill="white"/>
</svg>
