<svg width="100" height="84" viewBox="0 0 100 84" fill="none" xmlns="http://www.w3.org/2000/svg">
<path d="M50.0004 21.058C34.512 21.058 21.8309 31.3443 20.218 44.7555C20.0111 44.7513 19.8042 44.7048 19.5973 44.7048C8.80846 44.7048 0 53.5047 0 64.2935C0 75.0822 8.80836 83.8908 19.5973 83.8908H19.6057C22.9712 83.8823 26.3535 83.6754 29.4993 82.5353C31.4967 81.8132 33.2491 80.462 34.7987 78.8025C36.3484 80.4621 38.1008 81.8133 40.098 82.5353C43.2439 83.6754 46.6262 83.8823 49.9958 83.8866H50.0084C53.3739 83.8823 56.7562 83.6754 59.902 82.5353C61.8994 81.8132 63.6518 80.462 65.2014 78.8025C66.7511 80.4621 68.5035 81.8133 70.5007 82.5353C73.6466 83.6754 77.0289 83.8823 80.3985 83.8866H80.4027C91.1915 83.8866 100 75.0782 100 64.2893C100 53.5004 91.1916 44.7006 80.4027 44.7006H80.3816C80.1789 44.7006 79.9804 44.747 79.782 44.7555C78.1689 31.3447 65.4889 21.058 50.0004 21.058ZM50.0004 26.4629C64.0404 26.4629 74.9735 36.0441 74.9854 47.3855L74.694 50.9072L78.1313 50.3118C78.8829 50.1809 79.6387 50.1133 80.4031 50.1091C88.2698 50.1091 94.5868 56.4262 94.5868 64.2928C94.5868 72.1594 88.274 78.4808 80.4074 78.4852C77.2911 78.4809 74.4746 78.2276 72.3465 77.4548C70.2182 76.6821 68.7446 75.5631 67.634 73.2576L65.1975 68.1904L62.7611 73.2576C61.6548 75.5631 60.1811 76.6822 58.0486 77.4548C55.9203 78.2276 53.1124 78.4809 50.0003 78.4852C46.884 78.4809 44.0675 78.2276 41.9393 77.4548C39.8111 76.6821 38.3375 75.5631 37.2269 73.2576L34.7904 68.1904L32.354 73.2576C31.2561 75.5631 29.7824 76.6822 27.6541 77.4548C25.5259 78.2276 22.7137 78.4809 19.5974 78.4852C11.7307 78.4852 5.4137 72.1596 5.4137 64.2928C5.4137 56.426 11.7308 50.1091 19.5974 50.1091C20.3659 50.1091 21.1302 50.1682 21.8861 50.2949L25.3317 50.8608L25.015 47.377C25.0319 36.0396 35.9601 26.462 50 26.4577L50.0004 26.4629Z" fill="white"/>
<path d="M73.6471 10.9236C65.434 10.9236 58.0786 16.0625 55.2529 23.7777L60.3285 25.6399C62.3764 20.0364 67.6843 16.3248 73.6463 16.3248C81.513 16.3248 87.83 22.6419 87.83 30.5084C87.83 37.0493 83.392 42.7161 77.0412 44.2824L78.3417 49.527C87.0783 47.3692 93.2389 39.5025 93.2389 30.5037C93.2389 19.7149 84.4305 10.915 73.6416 10.915L73.6471 10.9236Z" fill="white"/>
<path d="M70.9407 0.109375V6.86557H76.3498V0.109375H70.9407Z" fill="white"/>
<path d="M95.3807 4.95654L88.6245 11.7127L92.4502 15.5343L99.2064 8.77806L95.3807 4.95654Z" fill="white"/>
<path d="M51.9141 4.95654L48.0884 8.77806L54.8446 15.5343L58.6703 11.7127L51.9141 4.95654Z" fill="white"/>
</svg>
